<?xml version="1.0" encoding="utf-8"?>
<!-- Generator: Adobe Illustrator 27.9.0, SVG Export Plug-In . SVG Version: 6.00 Build 0)  -->
<svg version="1.1" id="Layer_1" xmlns="http://www.w3.org/2000/svg" xmlns:xlink="http://www.w3.org/1999/xlink" x="0px" y="0px"
	 viewBox="0 0 376.2 399.8" style="enable-background:new 0 0 376.2 399.8;" xml:space="preserve">
<style type="text/css">
	.st0{fill:url(#SVGID_1_);}
	.st1{fill:#FFFFFF;}
	.st2{fill:#133058;}
	.st3{fill:none;stroke:#FFFFFF;stroke-width:0.8505;stroke-linecap:round;stroke-linejoin:round;stroke-miterlimit:10;}
</style>
<g id="OBJECTS">
	<g>
		<g>
			
				<linearGradient id="SVGID_1_" gradientUnits="userSpaceOnUse" x1="141.587" y1="272.4187" x2="165.217" y2="272.4187" gradientTransform="matrix(1 0 0 -1 0 427.4725)">
				<stop  offset="0" style="stop-color:#FFFFFF"/>
				<stop  offset="1" style="stop-color:#A4D4ED"/>
			</linearGradient>
			<path class="st0" d="M165.2,147.7l-11.8,2.3l-11.8-2.3c0,0,0,1.4,4.4,11.2c0.1,0.2,0.1,0.4,0.2,0.5c0,0,0,0,0,0.1l0,0
				c0.4,0.6,1,1.2,1.8,1.7c3,1.7,7.7,1.7,10.7,0c1.3-0.7,2-1.7,2.2-2.6C165.3,149,165.2,147.7,165.2,147.7z"/>
			<path class="st1" d="M145,142.2c4.6-2.7,12.2-2.7,16.8,0s4.6,7,0,9.7s-12.2,2.7-16.8,0S140.4,144.9,145,142.2z"/>
			<path class="st2" d="M153.4,153.2c-3.1,0-6-0.7-8.2-2.1c-1.8-1.1-2.9-2.6-2.9-4s1-2.9,2.9-4c2.1-1.3,5.1-2.1,8.2-2.1
				c3.1,0,6,0.7,8.2,2.1c1.8,1.1,2.9,2.6,2.9,4s-1,2.9-2.9,4C159.5,152.4,156.5,153.2,153.4,153.2z"/>
			<path class="st3" d="M163,152.2c0,0,1.5-3.2,4.2-2.8c2.7,0.4,2.5,4.5-1.1,6.2c-2.2,1-3.6,0-5.9,3"/>
		</g>
	</g>
</g>
</svg>
