<?xml version="1.0" encoding="utf-8"?>
<!-- Generator: Adobe Illustrator 27.9.0, SVG Export Plug-In . SVG Version: 6.00 Build 0)  -->
<svg version="1.1" id="Layer_1" xmlns="http://www.w3.org/2000/svg" xmlns:xlink="http://www.w3.org/1999/xlink" x="0px" y="0px"
	 viewBox="0 0 376.2 399.8" style="enable-background:new 0 0 376.2 399.8;" xml:space="preserve">
<style type="text/css">
	.st0{fill:#5DC6F0;}
	.st1{fill:url(#SVGID_1_);}
	.st2{fill:url(#SVGID_00000123421097452510529390000013977218499835124376_);}
	.st3{fill:url(#SVGID_00000047041910906300423580000008485110863910314641_);}
	.st4{fill:#133058;}
	.st5{fill:url(#SVGID_00000093167563697756349270000016278979583896378810_);}
	.st6{fill:#FF5C98;}
	.st7{fill:url(#SVGID_00000044178725900970134620000016281145544518674353_);}
	.st8{fill:url(#SVGID_00000093143601825032714010000015302639297926908814_);}
	.st9{fill:url(#SVGID_00000109727651074799754990000008256655844706622652_);}
	.st10{fill:url(#SVGID_00000023978950561557774550000006163409746916643247_);}
	.st11{fill:url(#SVGID_00000032646223586395549530000002389930400255247506_);}
	.st12{fill:url(#SVGID_00000162324050811604528780000014551854769975715506_);}
	.st13{fill:url(#SVGID_00000065772034400042982830000006201078226423168167_);}
	.st14{fill:url(#SVGID_00000174595657859585647570000000409880974259896214_);}
	.st15{fill:url(#SVGID_00000082347183332799547920000015071588984742983345_);}
</style>
<g id="OBJECTS">
	<g>
		<g>
			<g>
				<polygon class="st0" points="205.6,200.6 180,185.7 180,185.1 205.6,200 				"/>
				
					<linearGradient id="SVGID_1_" gradientUnits="userSpaceOnUse" x1="179.724" y1="245.1752" x2="233.0657" y2="245.1752" gradientTransform="matrix(1 0 0 -1 0 427.4725)">
					<stop  offset="0" style="stop-color:#FFFFFF"/>
					<stop  offset="1" style="stop-color:#A4D4ED"/>
				</linearGradient>
				<path class="st1" d="M232.3,179.5l-25.6-14.9c0.7,0.4,1,1.5,0.6,2.9c-0.4,1.3-1.3,2.5-2.3,3.2l-25.2,14.5l25.6,14.9l25.2-14.5
					c1-0.6,1.9-1.8,2.3-3.2C233.3,181,233.1,179.9,232.3,179.5z"/>
				
					<linearGradient id="SVGID_00000111900788665285897170000016202910125118530232_" gradientUnits="userSpaceOnUse" x1="183.9352" y1="286.5456" x2="225.7467" y2="261.8223" gradientTransform="matrix(1 0 0 -1 0 427.4725)">
					<stop  offset="0" style="stop-color:#FFFFFF"/>
					<stop  offset="1" style="stop-color:#A4D4ED"/>
				</linearGradient>
				<path style="fill:url(#SVGID_00000111900788665285897170000016202910125118530232_);" d="M219.3,168.5l0-17l-25.6-14.9l0,17
					c0,2.3,0.8,4,2.2,4.8l25.6,14.9C220.1,172.5,219.3,170.8,219.3,168.5z"/>
				<path class="st0" d="M220.1,151.2l0,17c0,2.1,0.7,3.7,2,4.5l10.8,6.2c0.9,0.5,1.1,1.8,0.7,3.4c-0.5,1.6-1.6,3.1-2.8,3.8
					l-25.2,14.5l0-0.6l25.2-14.5c1-0.6,1.9-1.8,2.3-3.2c0.4-1.3,0.2-2.4-0.6-2.9l-10.8-6.2c-1.4-0.8-2.2-2.5-2.2-4.8l0-17
					L220.1,151.2z"/>
			</g>
			
				<linearGradient id="SVGID_00000101789460770666314410000011272369315976732305_" gradientUnits="userSpaceOnUse" x1="160.612" y1="307.9405" x2="258.668" y2="307.9405" gradientTransform="matrix(1 0 0 -1 0 427.4725)">
				<stop  offset="0" style="stop-color:#FFFFFF"/>
				<stop  offset="1" style="stop-color:#2D4483"/>
			</linearGradient>
			<path style="fill:url(#SVGID_00000101789460770666314410000011272369315976732305_);" d="M257.1,110.4L164,56.6
				c-0.4-0.2-0.8-0.3-1.1-0.1l-2.3,1.3c0.3-0.2,0.7-0.1,1.1,0.1l93.1,53.7c0.9,0.5,1.6,1.7,1.6,2.7l-0.2,67.2c0,0.5-0.2,0.8-0.5,1
				l2.3-1.3c0.3-0.2,0.5-0.5,0.5-1l0.2-67.2C258.7,112.1,258,110.9,257.1,110.4z"/>
			<path class="st4" d="M255.1,111.7c0.9,0.5,1.6,1.6,1.6,2.6l-0.2,60.9l-96.2-55.5l0.2-60.9c0-1,0.7-1.3,1.6-0.8L255.1,111.7z"/>
			
				<linearGradient id="SVGID_00000016039514057575985670000013225706137634630831_" gradientUnits="userSpaceOnUse" x1="160.25" y1="276.2772" x2="256.473" y2="276.2772" gradientTransform="matrix(1 0 0 -1 0 427.4725)">
				<stop  offset="0" style="stop-color:#FFFFFF"/>
				<stop  offset="1" style="stop-color:#A4D4ED"/>
			</linearGradient>
			<path style="fill:url(#SVGID_00000016039514057575985670000013225706137634630831_);" d="M256.5,175.2l0,6.4c0,1-0.7,1.5-1.6,1
				l-93.1-53.7c-0.9-0.5-1.6-1.8-1.6-2.8l0-6.4L256.5,175.2z"/>
			<g>
				<path class="st6" d="M242.8,169.6c0.3,0.2,0.6,0.6,0.6,1c0,0.4-0.3,0.5-0.6,0.3c-0.3-0.2-0.6-0.6-0.6-1
					C242.2,169.6,242.5,169.4,242.8,169.6z"/>
				<path class="st6" d="M250.1,173.8c0.3,0.2,0.6,0.6,0.6,1c0,0.4-0.3,0.5-0.6,0.3c-0.3-0.2-0.6-0.6-0.6-1
					C249.5,173.8,249.8,173.6,250.1,173.8z"/>
			</g>
			<g>
				
					<linearGradient id="SVGID_00000155115710068121734480000017849534215680178105_" gradientUnits="userSpaceOnUse" x1="139.3762" y1="349.6817" x2="229.5326" y2="299.075" gradientTransform="matrix(1 0 0 -1 0 427.4725)">
					<stop  offset="0" style="stop-color:#FF5A72;stop-opacity:0.7"/>
					<stop  offset="0.1515" style="stop-color:#FF6971;stop-opacity:0.6546"/>
					<stop  offset="0.7206" style="stop-color:#FF9C6E;stop-opacity:0.4838"/>
					<stop  offset="1" style="stop-color:#FFB06D;stop-opacity:0.4"/>
				</linearGradient>
				<path style="fill:url(#SVGID_00000155115710068121734480000017849534215680178105_);" d="M185.7,105.2l-20.4-11.8
					c-0.5-0.3-1-1.1-1-1.8l0,0c0-0.7,0.4-1,1-0.7l20.4,11.8c0.5,0.3,1,1.1,1,1.8l0,0C186.6,105.2,186.2,105.5,185.7,105.2z"/>
				
					<linearGradient id="SVGID_00000093868552272163889490000017359241913953737871_" gradientUnits="userSpaceOnUse" x1="137.3404" y1="346.0549" x2="227.4971" y2="295.4481" gradientTransform="matrix(1 0 0 -1 0 427.4725)">
					<stop  offset="0" style="stop-color:#FF5A72;stop-opacity:0.7"/>
					<stop  offset="0.1515" style="stop-color:#FF6971;stop-opacity:0.6546"/>
					<stop  offset="0.7206" style="stop-color:#FF9C6E;stop-opacity:0.4838"/>
					<stop  offset="1" style="stop-color:#FFB06D;stop-opacity:0.4"/>
				</linearGradient>
				<path style="fill:url(#SVGID_00000093868552272163889490000017359241913953737871_);" d="M173.1,102.8l-7.9-4.5
					c-0.5-0.3-1-1.1-1-1.8l0,0c0-0.7,0.4-1,1-0.7l7.9,4.5c0.5,0.3,1,1.1,1,1.8l0,0C174.1,102.8,173.6,103.2,173.1,102.8z"/>
				
					<linearGradient id="SVGID_00000007395024412493933060000013097593999502012557_" gradientUnits="userSpaceOnUse" x1="137.2575" y1="345.9072" x2="227.4139" y2="295.3006" gradientTransform="matrix(1 0 0 -1 0 427.4725)">
					<stop  offset="0" style="stop-color:#FF5A72;stop-opacity:0.7"/>
					<stop  offset="0.1515" style="stop-color:#FF6971;stop-opacity:0.6546"/>
					<stop  offset="0.7206" style="stop-color:#FF9C6E;stop-opacity:0.4838"/>
					<stop  offset="1" style="stop-color:#FFB06D;stop-opacity:0.4"/>
				</linearGradient>
				<path style="fill:url(#SVGID_00000007395024412493933060000013097593999502012557_);" d="M185.2,109.8l-7.9-4.5
					c-0.5-0.3-1-1.1-1-1.8l0,0c0-0.7,0.4-1,1-0.7l7.9,4.5c0.5,0.3,1,1.1,1,1.8l0,0C186.2,109.8,185.7,110.1,185.2,109.8z"/>
				
					<linearGradient id="SVGID_00000112630841996199541840000006189842026286319005_" gradientUnits="userSpaceOnUse" x1="135.2747" y1="342.3745" x2="225.4311" y2="291.7679" gradientTransform="matrix(1 0 0 -1 0 427.4725)">
					<stop  offset="0" style="stop-color:#FF5A72;stop-opacity:0.7"/>
					<stop  offset="0.1515" style="stop-color:#FF6971;stop-opacity:0.6546"/>
					<stop  offset="0.7206" style="stop-color:#FF9C6E;stop-opacity:0.4838"/>
					<stop  offset="1" style="stop-color:#FFB06D;stop-opacity:0.4"/>
				</linearGradient>
				<path style="fill:url(#SVGID_00000112630841996199541840000006189842026286319005_);" d="M169.2,105.5l-4-2.3
					c-0.5-0.3-1-1.1-1-1.8l0,0c0-0.7,0.4-1,1-0.7l4,2.3c0.5,0.3,1,1.1,1,1.8l0,0C170.2,105.4,169.7,105.8,169.2,105.5z"/>
				
					<linearGradient id="SVGID_00000085933329785157637680000015512605006620129982_" gradientUnits="userSpaceOnUse" x1="133.1462" y1="338.5827" x2="223.3024" y2="287.9762" gradientTransform="matrix(1 0 0 -1 0 427.4725)">
					<stop  offset="0" style="stop-color:#FF5A72;stop-opacity:0.7"/>
					<stop  offset="0.1515" style="stop-color:#FF6971;stop-opacity:0.6546"/>
					<stop  offset="0.7206" style="stop-color:#FF9C6E;stop-opacity:0.4838"/>
					<stop  offset="1" style="stop-color:#FFB06D;stop-opacity:0.4"/>
				</linearGradient>
				<path style="fill:url(#SVGID_00000085933329785157637680000015512605006620129982_);" d="M183.8,118.8L165.2,108
					c-0.5-0.3-1-1.1-1-1.8l0,0c0-0.7,0.4-1,1-0.7l18.6,10.7c0.5,0.3,1,1.1,1,1.8l0,0C184.8,118.7,184.3,119.1,183.8,118.8z"/>
				
					<linearGradient id="SVGID_00000106115504205749421330000017254696252321312419_" gradientUnits="userSpaceOnUse" x1="131.0986" y1="334.9354" x2="221.2555" y2="284.3286" gradientTransform="matrix(1 0 0 -1 0 427.4725)">
					<stop  offset="0" style="stop-color:#FF5A72;stop-opacity:0.7"/>
					<stop  offset="0.1515" style="stop-color:#FF6971;stop-opacity:0.6546"/>
					<stop  offset="0.7206" style="stop-color:#FF9C6E;stop-opacity:0.4838"/>
					<stop  offset="1" style="stop-color:#FFB06D;stop-opacity:0.4"/>
				</linearGradient>
				<path style="fill:url(#SVGID_00000106115504205749421330000017254696252321312419_);" d="M174.5,118.3l-9.3-5.3
					c-0.5-0.3-1-1.1-1-1.8l0,0c0-0.7,0.4-1,1-0.7l9.3,5.3c0.5,0.3,1,1.1,1,1.8l0,0C175.5,118.2,175,118.6,174.5,118.3z"/>
				
					<linearGradient id="SVGID_00000164475623536330952710000007379339681798644157_" gradientUnits="userSpaceOnUse" x1="129.0663" y1="331.3146" x2="219.2227" y2="280.7079" gradientTransform="matrix(1 0 0 -1 0 427.4725)">
					<stop  offset="0" style="stop-color:#FF5A72;stop-opacity:0.7"/>
					<stop  offset="0.1515" style="stop-color:#FF6971;stop-opacity:0.6546"/>
					<stop  offset="0.7206" style="stop-color:#FF9C6E;stop-opacity:0.4838"/>
					<stop  offset="1" style="stop-color:#FFB06D;stop-opacity:0.4"/>
				</linearGradient>
				<path style="fill:url(#SVGID_00000164475623536330952710000007379339681798644157_);" d="M169.7,120.3l-4.5-2.6
					c-0.5-0.3-1-1.1-1-1.8l0,0c0-0.7,0.4-1,1-0.7l4.5,2.6c0.5,0.3,1,1.1,1,1.8l0,0C170.7,120.3,170.3,120.6,169.7,120.3z"/>
				
					<linearGradient id="SVGID_00000073002763756645897370000016526061522011617925_" gradientUnits="userSpaceOnUse" x1="129.009" y1="331.213" x2="219.1658" y2="280.6061" gradientTransform="matrix(1 0 0 -1 0 427.4725)">
					<stop  offset="0" style="stop-color:#FF5A72;stop-opacity:0.7"/>
					<stop  offset="0.1515" style="stop-color:#FF6971;stop-opacity:0.6546"/>
					<stop  offset="0.7206" style="stop-color:#FF9C6E;stop-opacity:0.4838"/>
					<stop  offset="1" style="stop-color:#FFB06D;stop-opacity:0.4"/>
				</linearGradient>
				<path style="fill:url(#SVGID_00000073002763756645897370000016526061522011617925_);" d="M178,125.1l-4.5-2.6
					c-0.5-0.3-1-1.1-1-1.8l0,0c0-0.7,0.4-1,1-0.7l4.5,2.6c0.5,0.3,1,1.1,1,1.8l0,0C179,125.1,178.6,125.4,178,125.1z"/>
				
					<linearGradient id="SVGID_00000051384477029188773610000015188835757451728517_" gradientUnits="userSpaceOnUse" x1="128.9376" y1="331.0852" x2="219.0941" y2="280.4786" gradientTransform="matrix(1 0 0 -1 0 427.4725)">
					<stop  offset="0" style="stop-color:#FF5A72;stop-opacity:0.7"/>
					<stop  offset="0.1515" style="stop-color:#FF6971;stop-opacity:0.6546"/>
					<stop  offset="0.7206" style="stop-color:#FF9C6E;stop-opacity:0.4838"/>
					<stop  offset="1" style="stop-color:#FFB06D;stop-opacity:0.4"/>
				</linearGradient>
				<path style="fill:url(#SVGID_00000051384477029188773610000015188835757451728517_);" d="M191,132.6l-9.5-5.5
					c-0.5-0.3-1-1.1-1-1.8l0,0c0-0.7,0.4-1,1-0.7l9.5,5.5c0.5,0.3,1,1.1,1,1.8l0,0C192,132.6,191.5,132.9,191,132.6z"/>
			</g>
		</g>
	</g>
</g>
</svg>
