<?xml version="1.0" encoding="utf-8"?>
<!-- Generator: Adobe Illustrator 27.9.0, SVG Export Plug-In . SVG Version: 6.00 Build 0)  -->
<svg version="1.1" id="Layer_1" xmlns="http://www.w3.org/2000/svg" xmlns:xlink="http://www.w3.org/1999/xlink" x="0px" y="0px"
	 viewBox="0 0 376.2 399.8" style="enable-background:new 0 0 376.2 399.8;" xml:space="preserve">
<style type="text/css">
	.st0{fill:#5986FF;}
	.st1{fill:#335ED4;}
	.st2{fill:#FFFFFF;}
	.st3{font-family:'ArialMT';}
	.st4{font-size:15.7348px;}
</style>
<g id="OBJECTS">
	<g>
		<g>
			<g>
				<path class="st0" d="M238.2,28c1.1,0.6,1.9,2.1,1.9,3.4L240,68.8c0,1.2-0.9,1.7-2,1.1l-32.6-18.8c-1.1-0.6-2-2.1-1.9-3.4
					l0.1-37.5c0-1.2,0.9-1.7,2-1.1L238.2,28z"/>
				<path class="st1" d="M240.9,26.2L208.3,7.4c-0.5-0.3-1-0.3-1.4-0.1l-3,1.7c0.4-0.2,0.8-0.2,1.4,0.1L237.9,28
					c1.1,0.6,1.9,2.1,1.9,3.4l-0.1,37.5c0,0.6-0.2,1.1-0.6,1.3l3-1.7c0.4-0.2,0.6-0.6,0.6-1.3l0.1-37.5
					C242.8,28.3,242,26.8,240.9,26.2z"/>
			</g>
			<text transform="matrix(0.866 0.5 0 1 208.1182 37.2289)" class="st2 st3 st4">CSS</text>
		</g>
		<g>
		</g>
	</g>
</g>
</svg>
