<?xml version="1.0" encoding="utf-8"?>
<!-- Generator: Adobe Illustrator 27.9.0, SVG Export Plug-In . SVG Version: 6.00 Build 0)  -->
<svg version="1.1" id="Layer_1" xmlns="http://www.w3.org/2000/svg" xmlns:xlink="http://www.w3.org/1999/xlink" x="0px" y="0px"
	 viewBox="0 0 376.2 399.8" style="enable-background:new 0 0 376.2 399.8;" xml:space="preserve">
<style type="text/css">
	.st0{fill:url(#SVGID_1_);}
	.st1{fill:#FFFFFF;}
</style>
<g id="OBJECTS">
	<g>
		
			<linearGradient id="SVGID_1_" gradientUnits="userSpaceOnUse" x1="-21.5936" y1="258.9826" x2="334.9736" y2="50.4002" gradientTransform="matrix(1 0 0 -1 0 427.4725)">
			<stop  offset="0" style="stop-color:#FF5A72;stop-opacity:0.7"/>
			<stop  offset="0.1515" style="stop-color:#FF6971;stop-opacity:0.6546"/>
			<stop  offset="0.7206" style="stop-color:#FF9C6E;stop-opacity:0.4838"/>
			<stop  offset="1" style="stop-color:#FFB06D;stop-opacity:0.4"/>
		</linearGradient>
		<ellipse class="st0" cx="188.1" cy="291.2" rx="188.1" ry="108.6"/>
		<g>
			<g>
				<path class="st1" d="M151.4,21.5l-11.9-6.8c-0.8-0.5-1.5-1.7-1.5-2.8l0,0c0-1.1,0.7-1.6,1.5-1.1l11.9,6.8
					c0.8,0.5,1.5,1.7,1.5,2.8l0,0C152.9,21.5,152.2,22,151.4,21.5z"/>
				<path class="st1" d="M155.2,31.1l-15.7-9c-0.8-0.5-1.5-1.7-1.5-2.8l0,0c0-1.1,0.7-1.6,1.5-1.1l15.7,9c0.8,0.5,1.5,1.7,1.5,2.8
					l0,0C156.7,31,156,31.5,155.2,31.1z"/>
				<path class="st1" d="M179.3,45l-18.2-10.5c-0.8-0.5-1.5-1.7-1.5-2.8l0,0c0-1.1,0.7-1.6,1.5-1.1l18.2,10.5
					c0.8,0.5,1.5,1.7,1.5,2.8l0,0C180.8,44.9,180.1,45.4,179.3,45z"/>
				<path class="st1" d="M151.4,36.2l-11.9-6.8c-0.8-0.5-1.5-1.7-1.5-2.8l0,0c0-1.1,0.7-1.6,1.5-1.1l11.9,6.8
					c0.8,0.5,1.5,1.7,1.5,2.8l0,0C152.9,36.2,152.2,36.7,151.4,36.2z"/>
				<path class="st1" d="M169.7,46.7l-11.9-6.8c-0.8-0.5-1.5-1.7-1.5-2.8l0,0c0-1.1,0.7-1.6,1.5-1.1l11.9,6.8
					c0.8,0.5,1.5,1.7,1.5,2.8l0,0C171.1,46.7,170.5,47.2,169.7,46.7z"/>
				<path class="st1" d="M145.5,40.1l-6-3.4c-0.8-0.5-1.5-1.7-1.5-2.8l0,0c0-1.1,0.7-1.6,1.5-1.1l6,3.4c0.8,0.5,1.5,1.7,1.5,2.8l0,0
					C147,40.1,146.4,40.6,145.5,40.1z"/>
				<path class="st1" d="M167.5,60.2L139.6,44c-0.8-0.5-1.5-1.7-1.5-2.8l0,0c0-1.1,0.7-1.6,1.5-1.1l27.9,16.1
					c0.8,0.5,1.5,1.7,1.5,2.8l0,0C169,60.1,168.3,60.6,167.5,60.2z"/>
				<path class="st1" d="M167.5,75.1l-27.9-16.1c-0.8-0.5-1.5-1.7-1.5-2.8l0,0c0-1.1,0.7-1.6,1.5-1.1l27.9,16.1
					c0.8,0.5,1.5,1.7,1.5,2.8l0,0C169,75,168.3,75.5,167.5,75.1z"/>
				<path class="st1" d="M179.3,81.9l-6.3-3.7c-0.8-0.5-1.5-1.7-1.5-2.8l0,0c0-1.1,0.7-1.6,1.5-1.1l6.3,3.7c0.8,0.5,1.5,1.7,1.5,2.8
					l0,0C180.8,81.8,180.1,82.3,179.3,81.9z"/>
				<path class="st1" d="M153.5,59.4l-13.9-8c-0.8-0.5-1.5-1.7-1.5-2.8l0,0c0-1.1,0.7-1.6,1.5-1.1l13.9,8c0.8,0.5,1.5,1.7,1.5,2.8
					l0,0C155,59.4,154.3,59.9,153.5,59.4z"/>
			</g>
		</g>
	</g>
</g>
</svg>
