<?xml version="1.0" encoding="utf-8"?>
<!-- Generator: Adobe Illustrator 27.9.0, SVG Export Plug-In . SVG Version: 6.00 Build 0)  -->
<svg version="1.1" id="Layer_1" xmlns="http://www.w3.org/2000/svg" xmlns:xlink="http://www.w3.org/1999/xlink" x="0px" y="0px"
	 viewBox="0 0 376.2 399.8" style="enable-background:new 0 0 376.2 399.8;" xml:space="preserve">
<style type="text/css">
	.st0{fill:#FFFFFF;}
	.st1{fill:url(#SVGID_1_);}
	.st2{fill:#FFB0D2;}
	.st3{fill:#1D2C54;}
	.st4{fill:#0CA8C7;}
</style>
<g id="OBJECTS">
	<g>
		<g>
			<path class="st0" d="M143.8,113.2l-15.8,3l-15.8-3c0,0-0.1,1.8,5.9,14.9c0.1,0.2,0.2,0.5,0.3,0.7c0,0,0,0,0,0.1l0,0
				c0.5,0.8,1.3,1.6,2.4,2.3c3.9,2.3,10.3,2.3,14.3,0c1.7-1,2.7-2.2,2.9-3.5C143.9,115,143.8,113.2,143.8,113.2z"/>
			
				<linearGradient id="SVGID_1_" gradientUnits="userSpaceOnUse" x1="112.215" y1="304.4579" x2="143.794" y2="304.4579" gradientTransform="matrix(1 0 0 -1 0 427.4725)">
				<stop  offset="0" style="stop-color:#FF5A72;stop-opacity:0.7"/>
				<stop  offset="0.1515" style="stop-color:#FF6971;stop-opacity:0.6546"/>
				<stop  offset="0.7206" style="stop-color:#FF9C6E;stop-opacity:0.4838"/>
				<stop  offset="1" style="stop-color:#FFB06D;stop-opacity:0.4"/>
			</linearGradient>
			<path class="st1" d="M143.8,113.2l-15.8,3l-15.8-3c0,0-0.1,1.8,5.9,14.9c0.1,0.2,0.2,0.5,0.3,0.7c0,0,0,0,0,0.1l0,0
				c0.5,0.8,1.3,1.6,2.4,2.3c3.9,2.3,10.3,2.3,14.3,0c1.7-1,2.7-2.2,2.9-3.5C143.9,115,143.8,113.2,143.8,113.2z"/>
			<path class="st2" d="M116.8,105.9c6.2-3.6,16.3-3.6,22.5,0c6.2,3.6,6.2,9.4,0,13c-6.2,3.6-16.3,3.6-22.5,0
				C110.6,115.3,110.6,109.5,116.8,105.9z"/>
			<path class="st3" d="M128.1,120.6c-4.3,0-8.4-1-11.4-2.8c-2.5-1.5-4-3.5-4-5.4s1.5-3.9,4-5.4c3-1.8,7.1-2.8,11.4-2.8
				c4.3,0,8.4,1,11.4,2.8c2.5,1.5,4,3.5,4,5.4s-1.5,3.9-4,5.4C136.5,119.6,132.3,120.6,128.1,120.6z"/>
			<path class="st4" d="M128.1,115.1c-0.7,0-1.3-0.1-1.8-0.4c-0.4-0.2-0.6-0.5-0.6-0.8s0.2-0.6,0.6-0.8c0.5-0.3,1.1-0.4,1.8-0.4
				c0.7,0,1.3,0.1,1.8,0.4c0.4,0.2,0.6,0.5,0.6,0.8s-0.2,0.6-0.6,0.8C129.4,114.9,128.7,115.1,128.1,115.1z"/>
			<path class="st4" d="M137.7,91.5c-2.3,0.6-4.1,1.1-4.1,1.1l3.3,0.9c-1.6,3.4-3.6,6.1-5.1,7.8c-2.9,3.5-3.1,11.8-3.1,11.8
				l-1.4,0.9c0,0-0.3-4.7-0.4-12.6c-0.1-7.8,12.2-19.2,12.2-19.2C139.3,85.5,138.7,88.7,137.7,91.5z"/>
			<path class="st4" d="M127.8,113.7h-2.4c0,0-6.9-10.5-13.3-12.7c-3.3-1.1-8-2.9-12.7-5.9l3.8-3.3l-6.7,1.3
				c-3.5-2.8-6.8-6.3-9.1-11c0,0,24.9,4.9,31,15.1C124.4,107.4,127.8,113.7,127.8,113.7z"/>
			<path class="st4" d="M127.6,114.7c0,0-7.4-1.4-10.5,0.4c-3.1,1.7-9.4,4.7-17.1,2.5c0,0,10.3-8,17.3-6.5
				c6.9,1.5,11.1,2.7,11.1,2.7L127.6,114.7z"/>
		</g>
	</g>
</g>
</svg>
