<?xml version="1.0" encoding="utf-8"?>
<!-- Generator: Adobe Illustrator 27.9.0, SVG Export Plug-In . SVG Version: 6.00 Build 0)  -->
<svg version="1.1" id="Layer_1" xmlns="http://www.w3.org/2000/svg" xmlns:xlink="http://www.w3.org/1999/xlink" x="0px" y="0px"
	 viewBox="0 0 376.2 399.8" style="enable-background:new 0 0 376.2 399.8;" xml:space="preserve">
<style type="text/css">
	.st0{fill:#8ED7DD;}
	.st1{fill:#0CA8C7;}
	.st2{fill:#FFFFFF;}
	.st3{font-family:'ArialMT';}
	.st4{font-size:15.7348px;}
</style>
<g id="OBJECTS">
	<g>
		<g>
			<g>
				<path class="st0" d="M186.3,58.6c1.1,0.6,1.9,2.1,1.9,3.4l-0.1,37.5c0,1.2-0.9,1.7-2,1.1l-32.6-18.8c-1.1-0.6-2-2.1-1.9-3.4
					l0.1-37.5c0-1.2,0.9-1.7,2-1.1L186.3,58.6z"/>
				<path class="st1" d="M189,56.8L156.4,38c-0.5-0.3-1-0.3-1.4-0.1l-3,1.7c0.4-0.2,0.8-0.2,1.4,0.1L186,58.6
					c1.1,0.6,1.9,2.1,1.9,3.4l-0.1,37.5c0,0.6-0.2,1.1-0.6,1.3l3-1.7c0.4-0.2,0.6-0.6,0.6-1.3l0.1-37.5C191,59,190.1,57.5,189,56.8z
					"/>
			</g>
			<text transform="matrix(0.866 0.5 0 1 160.8867 69.519)" class="st2 st3 st4">JS</text>
		</g>
		<g>
			<text transform="matrix(0.866 0.5 0 1 212.7385 125.0624)" class="st2 st3 st4">PHP</text>
		</g>
	</g>
</g>
</svg>
