<?xml version="1.0" encoding="utf-8"?>
<!-- Generator: Adobe Illustrator 27.9.0, SVG Export Plug-In . SVG Version: 6.00 Build 0)  -->
<svg version="1.1" id="Layer_1" xmlns="http://www.w3.org/2000/svg" xmlns:xlink="http://www.w3.org/1999/xlink" x="0px" y="0px"
	 viewBox="0 0 376.2 399.8" style="enable-background:new 0 0 376.2 399.8;" xml:space="preserve">
<style type="text/css">
	.st0{fill:#133058;}
	.st1{fill:url(#SVGID_1_);}
	.st2{fill:url(#SVGID_00000025427744941072236370000017285791296249881502_);}
	.st3{fill:url(#SVGID_00000047780863792642225260000003408478910460010121_);}
	.st4{fill:url(#SVGID_00000079461539302754596640000007290958259457881481_);}
	.st5{fill:#822769;}
	.st6{fill:#FFB79E;}
	.st7{fill:url(#SVGID_00000160153076091641648700000002469846350188659601_);}
	.st8{fill:#F2F2F2;}
	.st9{fill:url(#SVGID_00000065042214879746525300000013728698006358982555_);}
	.st10{fill:none;stroke:#FFB79E;stroke-width:12.7122;stroke-linecap:round;stroke-linejoin:round;stroke-miterlimit:10;}
</style>
<g id="OBJECTS">
	<g>
		<g>
			<path class="st0" d="M137.4,322.5c0,0-1.9,4.5-2.4,7c0,0-1.1,3.6,4.6,5.8c5.8,2.2,10.7-1.9,11.7-3.5c0,0,15.3-0.4,21.1-7.4
				s0.2-9.3-4.6-8.1c-4.7,1.2-19.3,3.3-22.2,2.8C142.8,318.7,137.4,322.5,137.4,322.5z"/>
			
				<linearGradient id="SVGID_1_" gradientUnits="userSpaceOnUse" x1="82.078" y1="136.4378" x2="164.7499" y2="136.4378" gradientTransform="matrix(1 0 0 -1 0 427.4725)">
				<stop  offset="0" style="stop-color:#496DD1"/>
				<stop  offset="1" style="stop-color:#2D4483"/>
			</linearGradient>
			<path class="st1" d="M87.2,278.5c0,0,3.4,10,20.1,5.6c11.4-3,19.9-5.9,23.7-6.9c8.2-2.3,13.8-5.4,15.5-2.4c1.1,2-6.7,37.1-8,40.7
				c0,0-1.6,7.1-1.3,8.2c2.4,8.4,18.9,6.1,18.3,0c-0.6-6.1,9.2-55.7,9.3-59.8c0.1-5.8-3.8-12.1-15.4-11.1s-24.7,2.6-33.2,3.8
				C107.7,257.9,68.1,252.2,87.2,278.5z"/>
		</g>
		<g>
			<path class="st0" d="M110.4,373.5h-0.1c-0.6,0-1.1-0.5-1.1-1.1v-60.5c0-0.6,0.5-1.1,1.1-1.1h0.1c0.6,0,1.1,0.5,1.1,1.1v60.5
				C111.5,373,111,373.5,110.4,373.5z"/>
			<path class="st0" d="M148.3,353.9h-0.1c-0.6,0-1.1-0.5-1.1-1.1v-60.5c0-0.6,0.5-1.1,1.1-1.1h0.1c0.6,0,1.1,0.5,1.1,1.1v60.5
				C149.4,353.4,148.9,353.9,148.3,353.9z"/>
			<path class="st0" d="M67.1,347.8H67c-0.6,0-1.1-0.5-1.1-1.1v-60.5c0-0.6,0.5-1.1,1.1-1.1h0.1c0.6,0,1.1,0.5,1.1,1.1v60.5
				C68.3,347.3,67.8,347.8,67.1,347.8z"/>
		</g>
		
			<linearGradient id="SVGID_00000170963430082167275650000017668468952484577688_" gradientUnits="userSpaceOnUse" x1="130.9845" y1="166.7432" x2="65.3623" y2="82.2247" gradientTransform="matrix(1 0 0 -1 0 427.4725)">
			<stop  offset="0" style="stop-color:#FFFFFF"/>
			<stop  offset="1" style="stop-color:#2D4483"/>
		</linearGradient>
		<path style="fill:url(#SVGID_00000170963430082167275650000017668468952484577688_);" d="M108.1,265.6l-34.4,19.9
			c-2.6,1.5-5.1,1.7-6.9,0.7l43.7,25.4c1.8,1.1,4.3,0.8,6.9-0.7l34.4-19.9L108.1,265.6z"/>
		<g>
			<path class="st0" d="M161.1,335.2c0,0-1.9,4.5-2.4,7c0,0-1.1,3.6,4.6,5.8c5.8,2.2,10.7-1.9,11.7-3.5c0,0,15.3-0.4,21.1-7.4
				c5.8-6.9,0.2-9.3-4.6-8.1c-4.7,1.2-19.3,3.3-22.2,2.8S161.1,335.2,161.1,335.2z"/>
			
				<linearGradient id="SVGID_00000120529784103926154230000003575649206686110871_" gradientUnits="userSpaceOnUse" x1="117.8143" y1="153.3652" x2="183.7768" y2="119.3532" gradientTransform="matrix(1 0 0 -1 0 427.4725)">
				<stop  offset="0" style="stop-color:#5986FF"/>
				<stop  offset="1" style="stop-color:#2D4483"/>
			</linearGradient>
			<path style="fill:url(#SVGID_00000120529784103926154230000003575649206686110871_);" d="M179.6,271.4
				c-0.7-5.8-5.3-11.6-16.6-9.1c-11.4,2.5-24.2,5.7-32.5,7.9s-48.2,1.5-26,25.2c0,0,4.7,9.4,20.6,3.1c11-4.4,19.1-8.3,22.6-9.8
				c7.9-3.3,13-7.1,15.1-4.3c0.1,0.1,0.1,0.3,0.2,0.5c-0.6,3.4-1.5,9.4-1.4,15.2c0,0.5,0,1,0.1,1.5c0.2,3.6,0.2,7.1-0.2,10.7
				c-0.6,6.6-1.3,12.1-1.6,13.5c0,0-0.7,7.2-0.2,8.3c3.4,8.1,19.5,3.7,18.2-2.2C176.5,325.9,180.1,275.5,179.6,271.4z"/>
		</g>
		<g>
			
				<linearGradient id="SVGID_00000007412383102947234900000002376250266114684311_" gradientUnits="userSpaceOnUse" x1="82.6319" y1="240.7018" x2="159.9315" y2="108.7769" gradientTransform="matrix(1 0 0 -1 0 427.4725)">
				<stop  offset="0" style="stop-color:#FF5A72"/>
				<stop  offset="0.2266" style="stop-color:#CA5C80"/>
				<stop  offset="0.603" style="stop-color:#785E95"/>
				<stop  offset="0.8698" style="stop-color:#445FA3"/>
				<stop  offset="1" style="stop-color:#3060A8"/>
			</linearGradient>
			<path style="fill:url(#SVGID_00000007412383102947234900000002376250266114684311_);" d="M86.3,262.3c-0.1,3.7,1.7,7.2,4.8,9.2
				c7.2,4.9,19.2,11.2,25.8,12.1c16,2.3,17.3-8.2,17.3-8.2s-0.5-62.8-2.7-75.8c-1.2-6.9-6.6-10.4-12.3-14.2c-0.7-0.5-1.4-0.9-2-1.3
				c-4.3-2.6-9.2-4.2-14.2-4.2c-1.4,0-2.6,0.1-3.7,0.4c-5.7,1.1-8.1,4.5-10,7.2c-1.2,1.7-1.8,3.8-1.9,5.8L86.3,262.3z"/>
			<g>
				<g>
					<path class="st5" d="M120.5,193.5c0,0-8.5,2.9-6.2,13.1c0,0,12.1,34.5,30.5,36.6s39.3-8.4,41.6-11.2c0,0-2.7-6.8-5.2-6.9
						c-2.4-0.1-21.9,5.9-30.6,5.4c-8.8-0.5-10.4-5.6-12.6-10.4C135.8,215.3,131,189.8,120.5,193.5z"/>
					<g>
						<path class="st6" d="M184.2,231.6c0,0,2.9,1.6,6.7-1s4.5-6.6,4.5-6.6s5.9-0.8,6.5-1.9c0.9-1.5,0.8-4.6-5.9-4.9
							c-1.1,0-7.2,1.4-8.9,2.4s-5.9,4.6-6,6.9C181,228.7,182.3,231.1,184.2,231.6z"/>
					</g>
				</g>
			</g>
		</g>
		<g>
			<g>
				
					<linearGradient id="SVGID_00000093890953692638204550000015490623808548234404_" gradientUnits="userSpaceOnUse" x1="103.806" y1="161.2228" x2="152.136" y2="161.2228" gradientTransform="matrix(1 0 0 -1 0 427.4725)">
					<stop  offset="0" style="stop-color:#FFFFFF"/>
					<stop  offset="1" style="stop-color:#2D4483"/>
				</linearGradient>
				<path style="fill:url(#SVGID_00000093890953692638204550000015490623808548234404_);" d="M104.5,219.3l7,38.8
					c0.9,4.8,1,10.2,0.3,16l-3.7,29.4c-0.4,3.5,0.4,6.3,2.2,7.8c1.9,1.4,4.6,1.3,7.4-0.3l34.4-19.9l0,0.8l-34.4,19.9
					c-3.1,1.8-6,1.9-8,0.4c-2-1.5-2.9-4.6-2.4-8.3l3.7-29.4c0.7-5.7,0.6-11-0.3-15.7l-7-38.8L104.5,219.3z"/>
			</g>
			<g>
				<polygon class="st8" points="103.8,219.9 60.1,194.5 60.8,193.9 104.5,219.3 				"/>
			</g>
			
				<linearGradient id="SVGID_00000183967355102054885790000015756529867986285486_" gradientUnits="userSpaceOnUse" x1="51.0677" y1="260.0409" x2="113.7819" y2="97.5293" gradientTransform="matrix(1 0 0 -1 0 427.4725)">
				<stop  offset="0" style="stop-color:#FFFFFF"/>
				<stop  offset="0.2266" style="stop-color:#CAD6E9"/>
				<stop  offset="0.603" style="stop-color:#7897C6"/>
				<stop  offset="0.8698" style="stop-color:#446FB0"/>
				<stop  offset="1" style="stop-color:#3060A8"/>
			</linearGradient>
			<path style="fill:url(#SVGID_00000183967355102054885790000015756529867986285486_);" d="M110.8,274.4c0.7-5.7,0.6-11-0.3-15.7
				l-7-38.8l-43.7-25.4l7,38.8c0.9,4.7,1,10,0.3,15.7l-3.7,29.4c-0.5,3.8,0.4,6.8,2.4,8.3c0.2,0.1,0.3,0.2,0.5,0.4l43.7,25.4
				c-0.2-0.1-0.4-0.2-0.5-0.4c-2-1.5-2.9-4.6-2.4-8.3L110.8,274.4z"/>
		</g>
		<g>
			<g>
				<line class="st10" x1="109.3" y1="170.5" x2="109.3" y2="182.4"/>
			</g>
			<g>
				<path class="st6" d="M129.6,151.9c3.6,10.4,0.4,22.3-7.6,25.1c-1.2,0.4-2.4,0.6-3.6,0.6c-5.7,0-11.8-4.2-15.6-10.4
					c-1-1.6-1.8-3.3-2.4-5.1c-0.1-0.3-0.2-0.5-0.2-0.7c-0.2-0.5-0.3-1.1-0.5-1.6c-1.6-6.5-0.2-12.5,3.4-16.4c1.1-1.3,2.5-2.3,4-3.1
					c0.6-0.3,1.2-0.6,1.8-0.8c6.2-2.2,13.1,0.3,17.5,6.3C127.6,147.5,128.7,149.6,129.6,151.9z"/>
				<path class="st0" d="M127.8,146.3c0.9-1.3,1.7-3.2,1.8-5.8c0,0-0.2-1.3-1.7,1.4c-0.3,0.6-0.9,1.2-1.7,1.6c0,0,0,0,0,0
					c-4.2-8.6-20.7-16.3-27.5,0.4c-0.6-0.4-1.3-0.8-1.3,0.1c0,0.2,0,0.5,0,0.7c-0.9-0.5-2.8-1.3-2.2,0.4c0.3,0.8,0.5,1.5,0.7,2
					c-2.1,2.4-4.3,6.5-3.7,11.2c0.5,4.5,3.4,10,6.9,13.8c0,0,0,0,0,0c0,0,0,0,0,0c0.5,0.5,0.9,1,1.4,1.4c0.2,0.4,0.3,0.9,0,1.3
					c-0.6,0.9-0.2,1.9,1.4,2.4c2.4,0.7,5.6,0.6,7.5-0.7c0.1,0.1,0.1,0.3,0.2,0.4c1.1,1.9,2.7,1.2,2.1,0c0,0,0,0,0,0
					c-0.5-0.9-0.3-2.1,0.4-2.8c2.3-2.3,4-5.3,5.8-6.2c3.4-1.8-3.4-5.8-0.4-8.4c2.2-2,4.5,3.5,6.2,1.8c1.3-1.3-2.1-4.9-2.6-7.3
					c1.6-0.2,5.7-1.2,7.4-7.4C128.8,146.4,128.8,145.5,127.8,146.3z"/>
				<path class="st6" d="M124.1,161.2c1,2.5,0.4,5.4-1.6,6.2c-1.9,0.8-4.4-0.9-5.4-3.4c-1-2.5-0.1-4.9,1.8-5.6
					C120.8,157.6,123.1,158.7,124.1,161.2z"/>
			</g>
		</g>
	</g>
</g>
</svg>
