<?xml version="1.0" encoding="utf-8"?>
<!-- Generator: Adobe Illustrator 27.9.0, SVG Export Plug-In . SVG Version: 6.00 Build 0)  -->
<svg version="1.1" id="Layer_1" xmlns="http://www.w3.org/2000/svg" xmlns:xlink="http://www.w3.org/1999/xlink" x="0px" y="0px"
	 viewBox="0 0 376.2 399.8" style="enable-background:new 0 0 376.2 399.8;" xml:space="preserve">
<style type="text/css">
	.st0{fill:url(#SVGID_1_);}
	.st1{fill:url(#SVGID_00000054948800266103716100000017494428049114200961_);}
	.st2{fill:#FF5C98;}
	.st3{fill:url(#SVGID_00000120543800468220952310000009842214431399889031_);}
	.st4{fill:#0CA8C7;}
</style>
<g id="OBJECTS">
	<g>
		<g>
			<g>
				
					<linearGradient id="SVGID_1_" gradientUnits="userSpaceOnUse" x1="260.6019" y1="196.0781" x2="207.869" y2="226.1302" gradientTransform="matrix(1 0 0 -1 0 427.4725)">
					<stop  offset="0" style="stop-color:#FFFFFF"/>
					<stop  offset="1" style="stop-color:#A4D4ED"/>
				</linearGradient>
				<path class="st0" d="M255.9,219.9c0.5-0.3,0.9-0.5,1.4-0.7c6.4-2.9,7.3,1.3,7.3,1.5l-23.8,13.7
					C242.3,232.1,249.7,223.5,255.9,219.9z"/>
			</g>
			
				<linearGradient id="SVGID_00000040571460155660059950000009333277845500079288_" gradientUnits="userSpaceOnUse" x1="227.921" y1="204.9733" x2="263.152" y2="204.9733" gradientTransform="matrix(1 0 0 -1 0 427.4725)">
				<stop  offset="0" style="stop-color:#FFFFFF"/>
				<stop  offset="1" style="stop-color:#A4D4ED"/>
			</linearGradient>
			<path style="fill:url(#SVGID_00000040571460155660059950000009333277845500079288_);" d="M250.2,211.1c-1.1-0.6-2.9-0.8-5.8,0.5
				c-0.5,0.2-0.9,0.5-1.4,0.7c-6.2,3.6-13.6,12.2-15,14.5l13,7.5c1.4-2.3,8.8-10.9,15-14.5c0.5-0.3,0.9-0.5,1.4-0.7
				c3-1.4,4.8-1.2,5.8-0.5L250.2,211.1z"/>
			<g>
				<g>
					<path class="st2" d="M248.4,217.1c0.8-0.4,2.2-1.2,2.9-1.4c0,0-0.2-1.7-2-1.3c-1.1,0.2-2.2,2.2-2.3,3.6l0.7,0.2l0.9-0.6
						L248.4,217.1C248.4,217.2,248.4,217.1,248.4,217.1z"/>
				</g>
				
					<linearGradient id="SVGID_00000149375155682456776210000004828539990879834777_" gradientUnits="userSpaceOnUse" x1="231.121" y1="218.2255" x2="250.7763" y2="210.4997" gradientTransform="matrix(1 0 0 -1 0 427.4725)">
					<stop  offset="0" style="stop-color:#FFFFFF"/>
					<stop  offset="1" style="stop-color:#E02066"/>
				</linearGradient>
				<path style="fill:url(#SVGID_00000149375155682456776210000004828539990879834777_);" d="M247.8,218.1c0,0,2.4-1.5,3.8-2
					c0,0-0.4-1.8-1.6-1.5C249,214.9,247.9,216.8,247.8,218.1z"/>
			</g>
		</g>
		<g>
			<path class="st4" d="M128.1,115.1c-0.7,0-1.3-0.1-1.8-0.4c-0.4-0.2-0.6-0.5-0.6-0.8s0.2-0.6,0.6-0.8c0.5-0.3,1.1-0.4,1.8-0.4
				c0.7,0,1.3,0.1,1.8,0.4c0.4,0.2,0.6,0.5,0.6,0.8s-0.2,0.6-0.6,0.8C129.4,114.9,128.7,115.1,128.1,115.1z"/>
		</g>
	</g>
</g>
</svg>
