<?xml version="1.0" encoding="utf-8"?>
<!-- Generator: Adobe Illustrator 27.9.0, SVG Export Plug-In . SVG Version: 6.00 Build 0)  -->
<svg version="1.1" id="Layer_1" xmlns="http://www.w3.org/2000/svg" xmlns:xlink="http://www.w3.org/1999/xlink" x="0px" y="0px"
	 viewBox="0 0 376.2 399.8" style="enable-background:new 0 0 376.2 399.8;" xml:space="preserve">
<style type="text/css">
	.st0{fill:#FFFFFF;}
	.st1{font-family:'ArialMT';}
	.st2{font-size:15.7348px;}
	.st3{fill:#FF5C98;}
	.st4{fill:#B8426D;}
</style>
<g id="OBJECTS">
	<g>
		<g>
			<text transform="matrix(0.866 0.5 0 1 160.8867 69.519)" class="st0 st1 st2">JS</text>
		</g>
		<g>
			<g>
				<path class="st3" d="M244.6,116c1.1,0.6,1.9,2.1,1.9,3.4l-0.1,37.5c0,1.2-0.9,1.7-2,1.1l-32.6-18.8c-1.1-0.6-2-2.1-1.9-3.4
					l0.1-37.5c0-1.2,0.9-1.7,2-1.1L244.6,116z"/>
				<path class="st4" d="M247.3,114.2l-32.6-18.8c-0.5-0.3-1-0.3-1.4-0.1l-3,1.7c0.4-0.2,0.8-0.2,1.4,0.1l32.6,18.8
					c1.1,0.6,1.9,2.1,1.9,3.4l-0.1,37.5c0,0.6-0.2,1.1-0.6,1.3l3-1.7c0.4-0.2,0.6-0.6,0.6-1.3l0.1-37.5
					C249.2,116.4,248.3,114.9,247.3,114.2z"/>
			</g>
			<text transform="matrix(0.866 0.5 0 1 212.7385 125.0624)" class="st0 st1 st2">PHP</text>
		</g>
	</g>
</g>
</svg>
