<?xml version="1.0" encoding="utf-8"?>
<!-- Generator: Adobe Illustrator 27.9.0, SVG Export Plug-In . SVG Version: 6.00 Build 0)  -->
<svg version="1.1" id="Layer_1" xmlns="http://www.w3.org/2000/svg" xmlns:xlink="http://www.w3.org/1999/xlink" x="0px" y="0px"
	 viewBox="0 0 376.2 399.8" style="enable-background:new 0 0 376.2 399.8;" xml:space="preserve">
<style type="text/css">
	.st0{fill:#133058;}
	.st1{fill:url(#SVGID_1_);}
	.st2{fill:#F2F2F2;}
	.st3{fill:url(#SVGID_00000121243393611622686270000010653479491056187821_);}
	.st4{fill:url(#SVGID_00000155830475958443623140000012838895586341962384_);}
	.st5{fill:url(#SVGID_00000075137526678372436730000013266279799208356496_);}
	.st6{enable-background:new    ;}
	.st7{fill:url(#SVGID_00000080200063564680809700000011788411327503048105_);}
	.st8{fill:url(#SVGID_00000073713899317247942520000018120622578118736036_);}
	.st9{fill:url(#SVGID_00000151502405578278604030000014390292078198049940_);}
	.st10{fill:url(#SVGID_00000036955461983691231150000011960125530497552017_);}
	.st11{fill:url(#SVGID_00000124846510823033502320000006168086504790691744_);}
	.st12{fill:url(#SVGID_00000005950835992747411980000006811961301889603254_);}
	.st13{fill:url(#SVGID_00000106865453755368275030000002288642475635876281_);}
	.st14{fill:url(#SVGID_00000038405175595783858010000000298984030694391997_);}
	.st15{fill:url(#SVGID_00000043442210767518114740000013058304438273755296_);}
	.st16{fill:url(#SVGID_00000148641357782126526700000014817704552438974610_);}
	.st17{fill:url(#SVGID_00000135682671210906415770000004078888176568130995_);}
	.st18{fill:url(#SVGID_00000068643152148666214310000016347338436993556609_);}
	.st19{fill:url(#SVGID_00000114075363300539181920000012710788039788648346_);}
	.st20{fill:url(#SVGID_00000120559143924858326050000011730510812064716201_);}
	.st21{fill:url(#SVGID_00000061456061685318972900000005187439817428804275_);}
	.st22{fill:url(#SVGID_00000171707531515326522260000016447813554571601294_);}
	.st23{fill:url(#SVGID_00000026886286558142130900000015259336367958695358_);}
	.st24{fill:url(#SVGID_00000168106408750075997170000011254450964434915969_);}
	.st25{fill:url(#SVGID_00000012442729329338270680000010297419517717419947_);}
	.st26{fill:url(#SVGID_00000154400071205143986260000003565191444628406206_);}
	.st27{fill:url(#SVGID_00000009579453984163523590000003591407189800153475_);}
	.st28{fill:url(#SVGID_00000147196511257785663450000007840911861543458203_);}
	.st29{fill:url(#SVGID_00000119812044618186085490000008674630697826405044_);}
	.st30{fill:url(#SVGID_00000005239766028025423110000009414168058894780830_);}
	.st31{fill:url(#SVGID_00000038386354007184873470000004999033821073326257_);}
	.st32{fill:url(#SVGID_00000109727616863821676660000006655673520492819607_);}
	.st33{fill:url(#SVGID_00000137133033254470604930000003576770351130310535_);}
	.st34{fill:url(#SVGID_00000039835094836189416390000011903833337213851546_);}
	.st35{fill:url(#SVGID_00000067220253255305157930000003868147899948253868_);}
	.st36{fill:url(#SVGID_00000130620396345329745570000009484782629585029054_);}
	.st37{fill:url(#SVGID_00000137849859303698261730000014295308385294492816_);}
	.st38{fill:url(#SVGID_00000084515120863735023680000004736445658000203177_);}
	.st39{fill:url(#SVGID_00000133506920524698523670000011892203694803052690_);}
	.st40{fill:url(#SVGID_00000000933735201251288580000012506577420164899976_);}
	.st41{fill:#FF5C98;}
	.st42{fill:url(#SVGID_00000017505833287125430150000013571919113740467386_);}
</style>
<g id="OBJECTS">
	<g>
		<g>
			<g>
				<path class="st0" d="M231.6,381.2L231.6,381.2c-1.1,0-2-0.9-2-2V267.4c0-1.1,0.9-2,2-2l0,0c1.1,0,2,0.9,2,2v111.8
					C233.5,380.3,232.6,381.2,231.6,381.2z"/>
				<path class="st0" d="M327.1,327.8L327.1,327.8c-1.1,0-2-0.9-2-2V214.1c0-1.1,0.9-2,2-2l0,0c1.1,0,2,0.9,2,2v111.8
					C329,327,328.2,327.8,327.1,327.8z"/>
				<path class="st0" d="M51,277.2L51,277.2c-1.1,0-2-0.9-2-2V163.4c0-1.1,0.9-2,2-2l0,0c1.1,0,2,0.9,2,2v111.8
					C53,276.3,52.1,277.2,51,277.2z"/>
			</g>
			<g>
				
					<linearGradient id="SVGID_1_" gradientUnits="userSpaceOnUse" x1="43.6676" y1="238.8575" x2="332.5455" y2="238.8575" gradientTransform="matrix(1 0 0 -1 0 427.4725)">
					<stop  offset="0" style="stop-color:#FFFFFF"/>
					<stop  offset="1" style="stop-color:#2D4483"/>
				</linearGradient>
				<path class="st1" d="M331.8,213c1,0.6,1,1.5,0,2l-97.6,56.7c-1,0.6-2.5,0.6-3.5,0L44.4,164.2c-1-0.6-1-1.5,0-2l97.6-56.7
					c1-0.6,2.5-0.6,3.5,0L331.8,213z"/>
				<path class="st0" d="M331.5,215l-97.6,56.7c-1,0.6-2.5,0.6-3.5,0L44.1,164.2c-0.5-0.3-0.7-0.7-0.7-1l0,3.2c0,0.4,0.2,0.7,0.7,1
					L230.4,275c1,0.6,2.5,0.6,3.5,0l97.6-56.7c0.5-0.3,0.7-0.6,0.7-1l0-3.2C332.3,214.4,332,214.8,331.5,215z"/>
			</g>
		</g>
		<g>
			<path class="st2" d="M220.8,217.1c0.9,0.5,1,1.2,0.1,1.7l-25.6,14.9c-0.9,0.5-2.4,0.6-3.2,0.1L99,180c-0.9-0.5-0.7-1.4,0.1-1.9
				l25.6-14.9c0.9-0.5,2.1-0.4,3,0.1L220.8,217.1z"/>
			
				<linearGradient id="SVGID_00000136378976869357427590000015081481066665696928_" gradientUnits="userSpaceOnUse" x1="98.389" y1="219.7945" x2="221.4801" y2="219.7945" gradientTransform="matrix(1 0 0 -1 0 427.4725)">
				<stop  offset="0" style="stop-color:#FFFFFF"/>
				<stop  offset="1" style="stop-color:#2D4483"/>
			</linearGradient>
			<path style="fill:url(#SVGID_00000136378976869357427590000015081481066665696928_);" d="M220.9,218.8l-25.6,14.9
				c-0.9,0.5-2.4,0.6-3.2,0.1L99,180c-0.4-0.2-0.6-0.5-0.6-0.9l0,2.1c0,0.3,0.2,0.6,0.6,0.9l93.1,53.7c0.9,0.5,2.4,0.4,3.2-0.1
				l25.6-14.9c0.4-0.2,0.6-0.5,0.6-0.8l0-2.1C221.5,218.3,221.3,218.6,220.9,218.8z"/>
			<g>
				<g>
					
						<linearGradient id="SVGID_00000131366967548986381780000000547775744453840307_" gradientUnits="userSpaceOnUse" x1="96.8933" y1="274.3821" x2="224.8721" y2="200.5763" gradientTransform="matrix(1 0 0 -1 0 427.4725)">
						<stop  offset="0" style="stop-color:#FFFFFF"/>
						<stop  offset="1" style="stop-color:#2D4483"/>
					</linearGradient>
					<polygon style="fill:url(#SVGID_00000131366967548986381780000000547775744453840307_);" points="142.7,177.2 138.7,179.5 
						131.1,175.2 135.1,172.8 					"/>
				</g>
				<g>
					
						<linearGradient id="SVGID_00000025441738192179980520000013689792492468755871_" gradientUnits="userSpaceOnUse" x1="94.3105" y1="269.9034" x2="222.2894" y2="196.0975" gradientTransform="matrix(1 0 0 -1 0 427.4725)">
						<stop  offset="0" style="stop-color:#FFFFFF"/>
						<stop  offset="1" style="stop-color:#2D4483"/>
					</linearGradient>
					<polygon style="fill:url(#SVGID_00000025441738192179980520000013689792492468755871_);" points="190.7,210.8 186.7,213.2 
						179.1,208.8 183.1,206.5 					"/>
				</g>
				<g class="st6">
					<g>
						
							<linearGradient id="SVGID_00000077312804503775069760000008256833360194670773_" gradientUnits="userSpaceOnUse" x1="96.8904" y1="274.3779" x2="224.8703" y2="200.5715" gradientTransform="matrix(1 0 0 -1 0 427.4725)">
							<stop  offset="0" style="stop-color:#FFFFFF"/>
							<stop  offset="1" style="stop-color:#2D4483"/>
						</linearGradient>
						<polygon style="fill:url(#SVGID_00000077312804503775069760000008256833360194670773_);" points="151.6,182.3 147.5,184.6 
							140,180.3 144,177.9 						"/>
					</g>
					<g>
						
							<linearGradient id="SVGID_00000008834606546437632810000016225249863906344360_" gradientUnits="userSpaceOnUse" x1="94.3225" y1="269.9253" x2="222.3033" y2="196.1183" gradientTransform="matrix(1 0 0 -1 0 427.4725)">
							<stop  offset="0" style="stop-color:#FFFFFF"/>
							<stop  offset="1" style="stop-color:#2D4483"/>
						</linearGradient>
						<polygon style="fill:url(#SVGID_00000008834606546437632810000016225249863906344360_);" points="146.4,185.3 142.4,187.6 
							134.9,183.2 138.9,180.9 						"/>
					</g>
					<g>
						
							<linearGradient id="SVGID_00000052072403876481842760000010463939522326887078_" gradientUnits="userSpaceOnUse" x1="96.8881" y1="274.3729" x2="224.8669" y2="200.5671" gradientTransform="matrix(1 0 0 -1 0 427.4725)">
							<stop  offset="0" style="stop-color:#FFFFFF"/>
							<stop  offset="1" style="stop-color:#2D4483"/>
						</linearGradient>
						<polygon style="fill:url(#SVGID_00000052072403876481842760000010463939522326887078_);" points="160.4,187.4 156.4,189.7 
							148.8,185.4 152.8,183 						"/>
					</g>
					<g>
						
							<linearGradient id="SVGID_00000089560288790339099080000017217590155968132487_" gradientUnits="userSpaceOnUse" x1="91.7543" y1="265.472" x2="219.7345" y2="191.6654" gradientTransform="matrix(1 0 0 -1 0 427.4725)">
							<stop  offset="0" style="stop-color:#FFFFFF"/>
							<stop  offset="1" style="stop-color:#2D4483"/>
						</linearGradient>
						<polygon style="fill:url(#SVGID_00000089560288790339099080000017217590155968132487_);" points="141.3,188.3 137.3,190.6 
							129.7,186.2 133.7,183.9 						"/>
					</g>
					<g>
						
							<linearGradient id="SVGID_00000050655272141104552560000009785061564421098632_" gradientUnits="userSpaceOnUse" x1="94.3202" y1="269.9209" x2="222.3" y2="196.1144" gradientTransform="matrix(1 0 0 -1 0 427.4725)">
							<stop  offset="0" style="stop-color:#FFFFFF"/>
							<stop  offset="1" style="stop-color:#2D4483"/>
						</linearGradient>
						<polygon style="fill:url(#SVGID_00000050655272141104552560000009785061564421098632_);" points="155.3,190.4 151.3,192.7 
							143.7,188.4 147.7,186 						"/>
					</g>
					<g>
						
							<linearGradient id="SVGID_00000007396823478419623470000005978248337921446589_" gradientUnits="userSpaceOnUse" x1="89.187" y1="261.0195" x2="217.1661" y2="187.2135" gradientTransform="matrix(1 0 0 -1 0 427.4725)">
							<stop  offset="0" style="stop-color:#FFFFFF"/>
							<stop  offset="1" style="stop-color:#2D4483"/>
						</linearGradient>
						<polygon style="fill:url(#SVGID_00000007396823478419623470000005978248337921446589_);" points="136.2,191.2 132.2,193.6 
							124.6,189.2 128.6,186.9 						"/>
					</g>
					<g>
						
							<linearGradient id="SVGID_00000023244496909171861020000013330230688194784406_" gradientUnits="userSpaceOnUse" x1="96.8849" y1="274.3691" x2="224.8653" y2="200.5623" gradientTransform="matrix(1 0 0 -1 0 427.4725)">
							<stop  offset="0" style="stop-color:#FFFFFF"/>
							<stop  offset="1" style="stop-color:#2D4483"/>
						</linearGradient>
						<polygon style="fill:url(#SVGID_00000023244496909171861020000013330230688194784406_);" points="169.3,192.5 165.3,194.9 
							157.7,190.5 161.7,188.2 						"/>
					</g>
					<g>
						
							<linearGradient id="SVGID_00000088129700444501234110000000245948280380466843_" gradientUnits="userSpaceOnUse" x1="91.752" y1="265.4675" x2="219.7312" y2="191.6615" gradientTransform="matrix(1 0 0 -1 0 427.4725)">
							<stop  offset="0" style="stop-color:#FFFFFF"/>
							<stop  offset="1" style="stop-color:#2D4483"/>
						</linearGradient>
						<polygon style="fill:url(#SVGID_00000088129700444501234110000000245948280380466843_);" points="150.2,193.4 146.1,195.7 
							138.6,191.3 142.6,189 						"/>
					</g>
					<g>
						
							<linearGradient id="SVGID_00000106148536811310174480000016747129831903640222_" gradientUnits="userSpaceOnUse" x1="94.3175" y1="269.9167" x2="222.2978" y2="196.11" gradientTransform="matrix(1 0 0 -1 0 427.4725)">
							<stop  offset="0" style="stop-color:#FFFFFF"/>
							<stop  offset="1" style="stop-color:#2D4483"/>
						</linearGradient>
						<polygon style="fill:url(#SVGID_00000106148536811310174480000016747129831903640222_);" points="164.1,195.5 160.1,197.8 
							152.6,193.5 156.6,191.1 						"/>
					</g>
					<g>
						
							<linearGradient id="SVGID_00000150087888544349622960000006282755428593479337_" gradientUnits="userSpaceOnUse" x1="96.8834" y1="274.3642" x2="224.8622" y2="200.5584" gradientTransform="matrix(1 0 0 -1 0 427.4725)">
							<stop  offset="0" style="stop-color:#FFFFFF"/>
							<stop  offset="1" style="stop-color:#2D4483"/>
						</linearGradient>
						<polygon style="fill:url(#SVGID_00000150087888544349622960000006282755428593479337_);" points="178.1,197.6 174.1,200 
							166.5,195.6 170.6,193.3 						"/>
					</g>
					<g>
						
							<linearGradient id="SVGID_00000007408094009330887480000010540513204957870759_" gradientUnits="userSpaceOnUse" x1="91.7488" y1="265.4633" x2="219.729" y2="191.6567" gradientTransform="matrix(1 0 0 -1 0 427.4725)">
							<stop  offset="0" style="stop-color:#FFFFFF"/>
							<stop  offset="1" style="stop-color:#2D4483"/>
						</linearGradient>
						<polygon style="fill:url(#SVGID_00000007408094009330887480000010540513204957870759_);" points="159,198.5 155,200.8 
							147.4,196.4 151.5,194.1 						"/>
					</g>
					<g>
						
							<linearGradient id="SVGID_00000077301126878759964740000001766968138650691997_" gradientUnits="userSpaceOnUse" x1="94.3153" y1="269.9122" x2="222.2951" y2="196.1058" gradientTransform="matrix(1 0 0 -1 0 427.4725)">
							<stop  offset="0" style="stop-color:#FFFFFF"/>
							<stop  offset="1" style="stop-color:#2D4483"/>
						</linearGradient>
						<polygon style="fill:url(#SVGID_00000077301126878759964740000001766968138650691997_);" points="173,200.6 169,202.9 
							161.4,198.6 165.4,196.2 						"/>
					</g>
					<g>
						
							<linearGradient id="SVGID_00000014625232064431227620000001331873824517077410_" gradientUnits="userSpaceOnUse" x1="96.8801" y1="274.3605" x2="224.8599" y2="200.554" gradientTransform="matrix(1 0 0 -1 0 427.4725)">
							<stop  offset="0" style="stop-color:#FFFFFF"/>
							<stop  offset="1" style="stop-color:#2D4483"/>
						</linearGradient>
						<polygon style="fill:url(#SVGID_00000014625232064431227620000001331873824517077410_);" points="187,202.7 183,205.1 
							175.4,200.7 179.4,198.4 						"/>
					</g>
					<g>
						
							<linearGradient id="SVGID_00000173860810238626803830000010218611403680662948_" gradientUnits="userSpaceOnUse" x1="91.7473" y1="265.4586" x2="219.726" y2="191.6528" gradientTransform="matrix(1 0 0 -1 0 427.4725)">
							<stop  offset="0" style="stop-color:#FFFFFF"/>
							<stop  offset="1" style="stop-color:#2D4483"/>
						</linearGradient>
						<polygon style="fill:url(#SVGID_00000173860810238626803830000010218611403680662948_);" points="167.9,203.6 163.9,205.9 
							156.3,201.6 160.3,199.2 						"/>
					</g>
					<g>
						
							<linearGradient id="SVGID_00000150084200506225634880000016164714815974235548_" gradientUnits="userSpaceOnUse" x1="96.8782" y1="274.3559" x2="224.8578" y2="200.5496" gradientTransform="matrix(1 0 0 -1 0 427.4725)">
							<stop  offset="0" style="stop-color:#FFFFFF"/>
							<stop  offset="1" style="stop-color:#2D4483"/>
						</linearGradient>
						<polygon style="fill:url(#SVGID_00000150084200506225634880000016164714815974235548_);" points="195.8,207.9 191.8,210.2 
							184.3,205.8 188.3,203.5 						"/>
					</g>
					<g>
						
							<linearGradient id="SVGID_00000070110699723847696410000013039080758662196671_" gradientUnits="userSpaceOnUse" x1="91.7438" y1="265.4548" x2="219.7241" y2="191.6482" gradientTransform="matrix(1 0 0 -1 0 427.4725)">
							<stop  offset="0" style="stop-color:#FFFFFF"/>
							<stop  offset="1" style="stop-color:#2D4483"/>
						</linearGradient>
						<polygon style="fill:url(#SVGID_00000070110699723847696410000013039080758662196671_);" points="176.7,208.7 172.7,211 
							165.1,206.7 169.2,204.3 						"/>
					</g>
					<g>
						
							<linearGradient id="SVGID_00000039093607553715561020000008184068817918366092_" gradientUnits="userSpaceOnUse" x1="89.1802" y1="261.0085" x2="217.1602" y2="187.2019" gradientTransform="matrix(1 0 0 -1 0 427.4725)">
							<stop  offset="0" style="stop-color:#FFFFFF"/>
							<stop  offset="1" style="stop-color:#2D4483"/>
						</linearGradient>
						<polygon style="fill:url(#SVGID_00000039093607553715561020000008184068817918366092_);" points="171.6,211.8 167.8,214 
							141.1,198.6 137.8,196.7 133.5,194.2 137.3,192 141.7,194.5 145,196.4 						"/>
					</g>
					<g>
						
							<linearGradient id="SVGID_00000127002027951770335520000005554720876160231089_" gradientUnits="userSpaceOnUse" x1="94.3078" y1="269.8996" x2="222.2877" y2="196.0932" gradientTransform="matrix(1 0 0 -1 0 427.4725)">
							<stop  offset="0" style="stop-color:#FFFFFF"/>
							<stop  offset="1" style="stop-color:#2D4483"/>
						</linearGradient>
						<polygon style="fill:url(#SVGID_00000127002027951770335520000005554720876160231089_);" points="199.6,216 195.5,218.3 
							188,213.9 192,211.6 						"/>
					</g>
					<g>
						
							<linearGradient id="SVGID_00000099628477508078557800000016210406617540526224_" gradientUnits="userSpaceOnUse" x1="89.1738" y1="260.9975" x2="217.1538" y2="187.191" gradientTransform="matrix(1 0 0 -1 0 427.4725)">
							<stop  offset="0" style="stop-color:#FFFFFF"/>
							<stop  offset="1" style="stop-color:#2D4483"/>
						</linearGradient>
						<polygon style="fill:url(#SVGID_00000099628477508078557800000016210406617540526224_);" points="180.5,216.8 176.4,219.1 
							168.9,214.8 172.9,212.4 						"/>
					</g>
					<g>
						
							<linearGradient id="SVGID_00000073696676935465533490000012179611994010646456_" gradientUnits="userSpaceOnUse" x1="91.7409" y1="265.4479" x2="219.7205" y2="191.6417" gradientTransform="matrix(1 0 0 -1 0 427.4725)">
							<stop  offset="0" style="stop-color:#FFFFFF"/>
							<stop  offset="1" style="stop-color:#2D4483"/>
						</linearGradient>
						<polygon style="fill:url(#SVGID_00000073696676935465533490000012179611994010646456_);" points="194.3,218.9 190.4,221.2 
							184.3,217.6 182.9,216.8 174.2,211.8 178,209.6 186.8,214.6 188.2,215.4 						"/>
					</g>
					<g>
						
							<linearGradient id="SVGID_00000168797925679628131230000007808894685783789994_" gradientUnits="userSpaceOnUse" x1="95.5901" y1="272.1236" x2="223.5703" y2="198.317" gradientTransform="matrix(1 0 0 -1 0 427.4725)">
							<stop  offset="0" style="stop-color:#FFFFFF"/>
							<stop  offset="1" style="stop-color:#2D4483"/>
						</linearGradient>
						<polygon style="fill:url(#SVGID_00000168797925679628131230000007808894685783789994_);" points="213.5,218.2 208.5,221.1 
							207.6,221.7 204.6,223.4 196.8,218.9 199.8,217.2 200.8,216.6 202,216 193.2,210.9 197,208.7 205.9,213.8 207.9,214.9 						
							"/>
					</g>
					<g>
						
							<linearGradient id="SVGID_00000123413728949611426500000004395096208261758592_" gradientUnits="userSpaceOnUse" x1="89.172" y1="260.9938" x2="217.1512" y2="187.1877" gradientTransform="matrix(1 0 0 -1 0 427.4725)">
							<stop  offset="0" style="stop-color:#FFFFFF"/>
							<stop  offset="1" style="stop-color:#2D4483"/>
						</linearGradient>
						<polygon style="fill:url(#SVGID_00000123413728949611426500000004395096208261758592_);" points="189.3,221.9 185.3,224.2 
							177.7,219.9 181.7,217.5 						"/>
					</g>
					<g>
						
							<linearGradient id="SVGID_00000141450089421329359660000014477052772117490839_" gradientUnits="userSpaceOnUse" x1="91.7375" y1="265.4416" x2="219.7167" y2="191.6355" gradientTransform="matrix(1 0 0 -1 0 427.4725)">
							<stop  offset="0" style="stop-color:#FFFFFF"/>
							<stop  offset="1" style="stop-color:#2D4483"/>
						</linearGradient>
						<polygon style="fill:url(#SVGID_00000141450089421329359660000014477052772117490839_);" points="203.3,224 199.3,226.4 
							191.7,222 195.7,219.7 						"/>
					</g>
					<g>
						
							<linearGradient id="SVGID_00000086654432322662815100000010956779479376187319_" gradientUnits="userSpaceOnUse" x1="89.1704" y1="260.9887" x2="217.1491" y2="187.1829" gradientTransform="matrix(1 0 0 -1 0 427.4725)">
							<stop  offset="0" style="stop-color:#FFFFFF"/>
							<stop  offset="1" style="stop-color:#2D4483"/>
						</linearGradient>
						<polygon style="fill:url(#SVGID_00000086654432322662815100000010956779479376187319_);" points="198.2,227 194.2,229.4 
							186.6,225 190.6,222.7 						"/>
					</g>
				</g>
				<g>
					
						<linearGradient id="SVGID_00000091015267980229029200000001182197486355835295_" gradientUnits="userSpaceOnUse" x1="94.3252" y1="269.9296" x2="222.3051" y2="196.1231" gradientTransform="matrix(1 0 0 -1 0 427.4725)">
						<stop  offset="0" style="stop-color:#FFFFFF"/>
						<stop  offset="1" style="stop-color:#2D4483"/>
					</linearGradient>
					<polygon style="fill:url(#SVGID_00000091015267980229029200000001182197486355835295_);" points="137.6,180.2 133.6,182.5 
						126,178.1 130,175.8 					"/>
				</g>
				<g>
					
						<linearGradient id="SVGID_00000004514290183242089870000015497455290177651385_" gradientUnits="userSpaceOnUse" x1="91.7593" y1="265.4804" x2="219.7389" y2="191.6741" gradientTransform="matrix(1 0 0 -1 0 427.4725)">
						<stop  offset="0" style="stop-color:#FFFFFF"/>
						<stop  offset="1" style="stop-color:#2D4483"/>
					</linearGradient>
					<polygon style="fill:url(#SVGID_00000004514290183242089870000015497455290177651385_);" points="123.6,178 119.6,180.4 
						112,176 116,173.7 					"/>
				</g>
				<g>
					
						<linearGradient id="SVGID_00000149352446277501383440000010062252020436972691_" gradientUnits="userSpaceOnUse" x1="89.1915" y1="261.0274" x2="217.1701" y2="187.2217" gradientTransform="matrix(1 0 0 -1 0 427.4725)">
						<stop  offset="0" style="stop-color:#FFFFFF"/>
						<stop  offset="1" style="stop-color:#2D4483"/>
					</linearGradient>
					<polygon style="fill:url(#SVGID_00000149352446277501383440000010062252020436972691_);" points="118.5,181 114.5,183.3 
						106.9,179 110.9,176.6 					"/>
				</g>
				<g>
					
						<linearGradient id="SVGID_00000103232890596843475000000011001565425231233940_" gradientUnits="userSpaceOnUse" x1="94.3277" y1="269.9338" x2="222.3077" y2="196.1275" gradientTransform="matrix(1 0 0 -1 0 427.4725)">
						<stop  offset="0" style="stop-color:#FFFFFF"/>
						<stop  offset="1" style="stop-color:#2D4483"/>
					</linearGradient>
					<polygon style="fill:url(#SVGID_00000103232890596843475000000011001565425231233940_);" points="128.7,175.1 124.7,177.4 
						117.1,173 121.2,170.7 					"/>
				</g>
				<g>
					
						<linearGradient id="SVGID_00000161620401194640664020000015482734227993009539_" gradientUnits="userSpaceOnUse" x1="96.8952" y1="274.3862" x2="224.875" y2="200.5798" gradientTransform="matrix(1 0 0 -1 0 427.4725)">
						<stop  offset="0" style="stop-color:#FFFFFF"/>
						<stop  offset="1" style="stop-color:#2D4483"/>
					</linearGradient>
					<polygon style="fill:url(#SVGID_00000161620401194640664020000015482734227993009539_);" points="133.8,172.1 129.8,174.4 
						122.3,170 126.3,167.7 					"/>
				</g>
				<g>
					
						<linearGradient id="SVGID_00000038406019645523907300000010207204464441743236_" gradientUnits="userSpaceOnUse" x1="94.3127" y1="269.908" x2="222.2926" y2="196.1016" gradientTransform="matrix(1 0 0 -1 0 427.4725)">
						<stop  offset="0" style="stop-color:#FFFFFF"/>
						<stop  offset="1" style="stop-color:#2D4483"/>
					</linearGradient>
					<polygon style="fill:url(#SVGID_00000038406019645523907300000010207204464441743236_);" points="181.9,205.7 177.8,208.1 
						170.3,203.7 174.3,201.4 					"/>
				</g>
				<g>
					
						<linearGradient id="SVGID_00000178188240872417185880000001331432374087828618_" gradientUnits="userSpaceOnUse" x1="89.1889" y1="261.0237" x2="217.169" y2="187.2171" gradientTransform="matrix(1 0 0 -1 0 427.4725)">
						<stop  offset="0" style="stop-color:#FFFFFF"/>
						<stop  offset="1" style="stop-color:#2D4483"/>
					</linearGradient>
					<polygon style="fill:url(#SVGID_00000178188240872417185880000001331432374087828618_);" points="127.3,186.1 123.3,188.5 
						115.7,184.1 119.8,181.8 					"/>
				</g>
				<g>
					
						<linearGradient id="SVGID_00000137105765388861896960000014752278801527779764_" gradientUnits="userSpaceOnUse" x1="91.7566" y1="265.4757" x2="219.7358" y2="191.6696" gradientTransform="matrix(1 0 0 -1 0 427.4725)">
						<stop  offset="0" style="stop-color:#FFFFFF"/>
						<stop  offset="1" style="stop-color:#2D4483"/>
					</linearGradient>
					<polygon style="fill:url(#SVGID_00000137105765388861896960000014752278801527779764_);" points="132.5,183.1 128.4,185.5 
						120.9,181.1 124.9,178.8 					"/>
				</g>
			</g>
		</g>
		<g>
			<g>
				
					<linearGradient id="SVGID_00000041263843046269611390000006728266319237210044_" gradientUnits="userSpaceOnUse" x1="260.6019" y1="196.0781" x2="207.869" y2="226.1302" gradientTransform="matrix(1 0 0 -1 0 427.4725)">
					<stop  offset="0" style="stop-color:#FFFFFF"/>
					<stop  offset="1" style="stop-color:#A4D4ED"/>
				</linearGradient>
				<path style="fill:url(#SVGID_00000041263843046269611390000006728266319237210044_);" d="M255.9,219.9c0.5-0.3,0.9-0.5,1.4-0.7
					c6.4-2.9,7.3,1.3,7.3,1.5l-23.8,13.7C242.3,232.1,249.7,223.5,255.9,219.9z"/>
			</g>
			
				<linearGradient id="SVGID_00000023257445322543000340000005669571196265437073_" gradientUnits="userSpaceOnUse" x1="227.921" y1="204.9733" x2="263.152" y2="204.9733" gradientTransform="matrix(1 0 0 -1 0 427.4725)">
				<stop  offset="0" style="stop-color:#FFFFFF"/>
				<stop  offset="1" style="stop-color:#A4D4ED"/>
			</linearGradient>
			<path style="fill:url(#SVGID_00000023257445322543000340000005669571196265437073_);" d="M250.2,211.1c-1.1-0.6-2.9-0.8-5.8,0.5
				c-0.5,0.2-0.9,0.5-1.4,0.7c-6.2,3.6-13.6,12.2-15,14.5l13,7.5c1.4-2.3,8.8-10.9,15-14.5c0.5-0.3,0.9-0.5,1.4-0.7
				c3-1.4,4.8-1.2,5.8-0.5L250.2,211.1z"/>
			<g>
				<g>
					<path class="st41" d="M248.4,217.1c0.8-0.4,2.2-1.2,2.9-1.4c0,0-0.2-1.7-2-1.3c-1.1,0.2-2.2,2.2-2.3,3.6l0.7,0.2l0.9-0.6
						L248.4,217.1C248.4,217.2,248.4,217.1,248.4,217.1z"/>
				</g>
				
					<linearGradient id="SVGID_00000043427347795373672950000016640357008684198078_" gradientUnits="userSpaceOnUse" x1="231.121" y1="218.2255" x2="250.7763" y2="210.4997" gradientTransform="matrix(1 0 0 -1 0 427.4725)">
					<stop  offset="0" style="stop-color:#FFFFFF"/>
					<stop  offset="1" style="stop-color:#E02066"/>
				</linearGradient>
				<path style="fill:url(#SVGID_00000043427347795373672950000016640357008684198078_);" d="M247.8,218.1c0,0,2.4-1.5,3.8-2
					c0,0-0.4-1.8-1.6-1.5C249,214.9,247.9,216.8,247.8,218.1z"/>
			</g>
		</g>
	</g>
</g>
</svg>
