<?xml version="1.0" encoding="utf-8"?>
<!-- Generator: Adobe Illustrator 27.9.0, SVG Export Plug-In . SVG Version: 6.00 Build 0)  -->
<svg version="1.1" id="Layer_1" xmlns="http://www.w3.org/2000/svg" xmlns:xlink="http://www.w3.org/1999/xlink" x="0px" y="0px"
	 viewBox="0 0 376.2 399.8" style="enable-background:new 0 0 376.2 399.8;" xml:space="preserve">
<style type="text/css">
	.st0{fill:url(#SVGID_1_);}
	.st1{fill:#FFFFFF;}
	.st2{fill:url(#SVGID_00000038392643308812057590000000013809690103317162_);}
	.st3{fill:url(#SVGID_00000108286842164370252930000016980632773518453394_);}
	.st4{fill:url(#SVGID_00000004504433252564724660000004468256341411372727_);}
</style>
<g id="OBJECTS">
	<g>
		<g>
			
				<linearGradient id="SVGID_1_" gradientUnits="userSpaceOnUse" x1="286.48" y1="282.626" x2="333.768" y2="282.626" gradientTransform="matrix(1 0 0 -1 0 427.4725)">
				<stop  offset="0" style="stop-color:#FF5A72;stop-opacity:0.7"/>
				<stop  offset="0.1515" style="stop-color:#FF6971;stop-opacity:0.6546"/>
				<stop  offset="0.7206" style="stop-color:#FF9C6E;stop-opacity:0.4838"/>
				<stop  offset="1" style="stop-color:#FFB06D;stop-opacity:0.4"/>
			</linearGradient>
			<path class="st0" d="M331.7,184.6l-43.1-24.9c-1.2-0.7-2.1-2.5-2.1-4v-49c0-1.5,0.9-2.3,2.1-1.6l43.1,24.9c1.2,0.7,2.1,2.5,2.1,4
				v49C333.8,184.5,332.8,185.3,331.7,184.6z"/>
			<g>
				<path class="st1" d="M306.8,126.6l-11.9-6.8c-0.8-0.5-1.5-1.7-1.5-2.8l0,0c0-1.1,0.7-1.6,1.5-1.1l11.9,6.8
					c0.8,0.5,1.5,1.7,1.5,2.8l0,0C308.3,126.5,307.6,127,306.8,126.6z"/>
				<path class="st1" d="M325.8,144.8L295,127c-0.8-0.5-1.5-1.7-1.5-2.8l0,0c0-1.1,0.7-1.6,1.5-1.1l30.8,17.8
					c0.8,0.5,1.5,1.7,1.5,2.8l0,0C327.2,144.8,326.6,145.3,325.8,144.8z"/>
				<path class="st1" d="M306.8,141.2l-11.9-6.8c-0.8-0.5-1.5-1.7-1.5-2.8l0,0c0-1.1,0.7-1.6,1.5-1.1l11.9,6.8
					c0.8,0.5,1.5,1.7,1.5,2.8l0,0C308.3,141.2,307.6,141.7,306.8,141.2z"/>
				<path class="st1" d="M325.1,151.7l-11.9-6.8c-0.8-0.5-1.5-1.7-1.5-2.8l0,0c0-1.1,0.7-1.6,1.5-1.1l11.9,6.8
					c0.8,0.5,1.5,1.7,1.5,2.8l0,0C326.5,151.7,325.9,152.2,325.1,151.7z"/>
				<path class="st1" d="M301,145.2l-6-3.4c-0.8-0.5-1.5-1.7-1.5-2.8l0,0c0-1.1,0.7-1.6,1.5-1.1l6,3.4c0.8,0.5,1.5,1.7,1.5,2.8l0,0
					C302.4,145.1,301.8,145.6,301,145.2z"/>
				<path class="st1" d="M322.9,165.2L295,149c-0.8-0.5-1.5-1.7-1.5-2.8l0,0c0-1.1,0.7-1.6,1.5-1.1l27.9,16.1
					c0.8,0.5,1.5,1.7,1.5,2.8l0,0C324.4,165.2,323.7,165.6,322.9,165.2z"/>
				<path class="st1" d="M308.9,164.4l-13.9-8c-0.8-0.5-1.5-1.7-1.5-2.8l0,0c0-1.1,0.7-1.6,1.5-1.1l13.9,8c0.8,0.5,1.5,1.7,1.5,2.8
					l0,0C310.4,164.4,309.7,164.9,308.9,164.4z"/>
			</g>
		</g>
		<g>
			
				<linearGradient id="SVGID_00000178167757603843943130000013907148286805577380_" gradientUnits="userSpaceOnUse" x1="211.796" y1="341.646" x2="274.948" y2="341.646" gradientTransform="matrix(1 0 0 -1 0 427.4725)">
				<stop  offset="0" style="stop-color:#FF5A72;stop-opacity:0.7"/>
				<stop  offset="0.1515" style="stop-color:#FF6971;stop-opacity:0.6546"/>
				<stop  offset="0.7206" style="stop-color:#FF9C6E;stop-opacity:0.4838"/>
				<stop  offset="1" style="stop-color:#FFB06D;stop-opacity:0.4"/>
			</linearGradient>
			<path style="fill:url(#SVGID_00000178167757603843943130000013907148286805577380_);" d="M272.1,138.9l-57.6-33.2
				c-1.5-0.9-2.8-3.3-2.8-5.4V34.9c0-2.1,1.3-3,2.8-2.1L272.1,66c1.5,0.9,2.8,3.3,2.8,5.4v65.5C274.9,138.8,273.7,139.8,272.1,138.9
				z"/>
			<g>
				<path class="st1" d="M232.2,53.8l-11.9-6.8c-0.8-0.5-1.5-1.7-1.5-2.8l0,0c0-1.1,0.7-1.6,1.5-1.1l11.9,6.8
					c0.8,0.5,1.5,1.7,1.5,2.8l0,0C233.6,53.8,233,54.3,232.2,53.8z"/>
				<path class="st1" d="M251.1,72.1l-30.8-17.8c-0.8-0.5-1.5-1.7-1.5-2.8l0,0c0-1.1,0.7-1.6,1.5-1.1l30.8,17.8
					c0.8,0.5,1.5,1.7,1.5,2.8l0,0C252.5,72,251.9,72.5,251.1,72.1z"/>
				<path class="st1" d="M232.2,68.5l-11.9-6.8c-0.8-0.5-1.5-1.7-1.5-2.8l0,0c0-1.1,0.7-1.6,1.5-1.1l11.9,6.8
					c0.8,0.5,1.5,1.7,1.5,2.8l0,0C233.6,68.4,233,68.9,232.2,68.5z"/>
				<path class="st1" d="M250.4,79l-11.9-6.8c-0.8-0.5-1.5-1.7-1.5-2.8l0,0c0-1.1,0.7-1.6,1.5-1.1l11.9,6.8c0.8,0.5,1.5,1.7,1.5,2.8
					l0,0C251.8,79,251.2,79.5,250.4,79z"/>
				<path class="st1" d="M265.8,87.9l-9.1-5.3c-0.8-0.5-1.5-1.7-1.5-2.8l0,0c0-1.1,0.7-1.6,1.5-1.1l9.1,5.3c0.8,0.5,1.5,1.7,1.5,2.8
					l0,0C267.3,87.9,266.6,88.4,265.8,87.9z"/>
				<path class="st1" d="M247.9,62.9l-9.1-5.3c-0.8-0.5-1.5-1.7-1.5-2.8l0,0c0-1.1,0.7-1.6,1.5-1.1l9.1,5.3c0.8,0.5,1.5,1.7,1.5,2.8
					l0,0C249.4,62.9,248.7,63.4,247.9,62.9z"/>
				<path class="st1" d="M263.6,72l-9.1-5.3c-0.8-0.5-1.5-1.7-1.5-2.8l0,0c0-1.1,0.7-1.6,1.5-1.1l9.1,5.3c0.8,0.5,1.5,1.7,1.5,2.8
					l0,0C265.1,71.9,264.5,72.4,263.6,72z"/>
				<path class="st1" d="M263.6,123l-9.1-5.3c-0.8-0.5-1.5-1.7-1.5-2.8l0,0c0-1.1,0.7-1.6,1.5-1.1l9.1,5.3c0.8,0.5,1.5,1.7,1.5,2.8
					l0,0C265.1,123,264.5,123.5,263.6,123z"/>
				<path class="st1" d="M226.3,72.4l-6-3.4c-0.8-0.5-1.5-1.7-1.5-2.8l0,0c0-1.1,0.7-1.6,1.5-1.1l6,3.4c0.8,0.5,1.5,1.7,1.5,2.8l0,0
					C227.7,72.4,227.1,72.9,226.3,72.4z"/>
				<path class="st1" d="M248.2,92.4l-27.9-16.1c-0.8-0.5-1.5-1.7-1.5-2.8l0,0c0-1.1,0.7-1.6,1.5-1.1l27.9,16.1
					c0.8,0.5,1.5,1.7,1.5,2.8l0,0C249.7,92.4,249.1,92.9,248.2,92.4z"/>
				<path class="st1" d="M248.2,107.3l-27.9-16.1c-0.8-0.5-1.5-1.7-1.5-2.8l0,0c0-1.1,0.7-1.6,1.5-1.1l27.9,16.1
					c0.8,0.5,1.5,1.7,1.5,2.8l0,0C249.7,107.3,249.1,107.8,248.2,107.3z"/>
				<path class="st1" d="M248.2,114.1L220.3,98c-0.8-0.5-1.5-1.7-1.5-2.8l0,0c0-1.1,0.7-1.6,1.5-1.1l27.9,16.1
					c0.8,0.5,1.5,1.7,1.5,2.8l0,0C249.7,114.1,249.1,114.6,248.2,114.1z"/>
				<path class="st1" d="M234.2,91.7l-13.9-8c-0.8-0.5-1.5-1.7-1.5-2.8l0,0c0-1.1,0.7-1.6,1.5-1.1l13.9,8c0.8,0.5,1.5,1.7,1.5,2.8
					l0,0C235.7,91.6,235,92.1,234.2,91.7z"/>
				<path class="st1" d="M255.6,104l-13.9-8c-0.8-0.5-1.5-1.7-1.5-2.8l0,0c0-1.1,0.7-1.6,1.5-1.1l13.9,8c0.8,0.5,1.5,1.7,1.5,2.8
					l0,0C257.1,104,256.4,104.5,255.6,104z"/>
			</g>
		</g>
		<g>
			
				<linearGradient id="SVGID_00000061447736741599781390000013609704477570479752_" gradientUnits="userSpaceOnUse" x1="131.076" y1="380.2142" x2="186.954" y2="380.2142" gradientTransform="matrix(1 0 0 -1 0 427.4725)">
				<stop  offset="0" style="stop-color:#FF5A72;stop-opacity:0.7"/>
				<stop  offset="0.1515" style="stop-color:#FF6971;stop-opacity:0.6546"/>
				<stop  offset="0.7206" style="stop-color:#FF9C6E;stop-opacity:0.4838"/>
				<stop  offset="1" style="stop-color:#FFB06D;stop-opacity:0.4"/>
			</linearGradient>
			<path style="fill:url(#SVGID_00000061447736741599781390000013609704477570479752_);" d="M184.5,94.2l-50.9-29.4
				c-1.4-0.8-2.5-2.9-2.5-4.7V2.2c0-1.8,1.1-2.7,2.5-1.9l50.9,29.4c1.4,0.8,2.5,2.9,2.5,4.7v57.9C187,94.2,185.8,95,184.5,94.2z"/>
			<g>
				<path class="st1" d="M151.4,21.5l-11.9-6.8c-0.8-0.5-1.5-1.7-1.5-2.8l0,0c0-1.1,0.7-1.6,1.5-1.1l11.9,6.8
					c0.8,0.5,1.5,1.7,1.5,2.8l0,0C152.9,21.5,152.2,22,151.4,21.5z"/>
				<path class="st1" d="M155.2,31.1l-15.7-9c-0.8-0.5-1.5-1.7-1.5-2.8l0,0c0-1.1,0.7-1.6,1.5-1.1l15.7,9c0.8,0.5,1.5,1.7,1.5,2.8
					l0,0C156.7,31,156,31.5,155.2,31.1z"/>
				<path class="st1" d="M179.3,45l-18.2-10.5c-0.8-0.5-1.5-1.7-1.5-2.8l0,0c0-1.1,0.7-1.6,1.5-1.1l18.2,10.5
					c0.8,0.5,1.5,1.7,1.5,2.8l0,0C180.8,44.9,180.1,45.4,179.3,45z"/>
				<path class="st1" d="M151.4,36.2l-11.9-6.8c-0.8-0.5-1.5-1.7-1.5-2.8l0,0c0-1.1,0.7-1.6,1.5-1.1l11.9,6.8
					c0.8,0.5,1.5,1.7,1.5,2.8l0,0C152.9,36.2,152.2,36.7,151.4,36.2z"/>
				<path class="st1" d="M169.7,46.7l-11.9-6.8c-0.8-0.5-1.5-1.7-1.5-2.8l0,0c0-1.1,0.7-1.6,1.5-1.1l11.9,6.8
					c0.8,0.5,1.5,1.7,1.5,2.8l0,0C171.1,46.7,170.5,47.2,169.7,46.7z"/>
				<path class="st1" d="M145.5,40.1l-6-3.4c-0.8-0.5-1.5-1.7-1.5-2.8l0,0c0-1.1,0.7-1.6,1.5-1.1l6,3.4c0.8,0.5,1.5,1.7,1.5,2.8l0,0
					C147,40.1,146.4,40.6,145.5,40.1z"/>
				<path class="st1" d="M167.5,60.2L139.6,44c-0.8-0.5-1.5-1.7-1.5-2.8l0,0c0-1.1,0.7-1.6,1.5-1.1l27.9,16.1
					c0.8,0.5,1.5,1.7,1.5,2.8l0,0C169,60.1,168.3,60.6,167.5,60.2z"/>
				<path class="st1" d="M167.5,75.1l-27.9-16.1c-0.8-0.5-1.5-1.7-1.5-2.8l0,0c0-1.1,0.7-1.6,1.5-1.1l27.9,16.1
					c0.8,0.5,1.5,1.7,1.5,2.8l0,0C169,75,168.3,75.5,167.5,75.1z"/>
				<path class="st1" d="M179.3,81.9l-6.3-3.7c-0.8-0.5-1.5-1.7-1.5-2.8l0,0c0-1.1,0.7-1.6,1.5-1.1l6.3,3.7c0.8,0.5,1.5,1.7,1.5,2.8
					l0,0C180.8,81.8,180.1,82.3,179.3,81.9z"/>
				<path class="st1" d="M153.5,59.4l-13.9-8c-0.8-0.5-1.5-1.7-1.5-2.8l0,0c0-1.1,0.7-1.6,1.5-1.1l13.9,8c0.8,0.5,1.5,1.7,1.5,2.8
					l0,0C155,59.4,154.3,59.9,153.5,59.4z"/>
			</g>
		</g>
		<g>
			
				<linearGradient id="SVGID_00000124152532504488405780000013705552798355708043_" gradientUnits="userSpaceOnUse" x1="265.591" y1="366.7182" x2="321.469" y2="366.7182" gradientTransform="matrix(1 0 0 -1 0 427.4725)">
				<stop  offset="0" style="stop-color:#FF5A72;stop-opacity:0.7"/>
				<stop  offset="0.1515" style="stop-color:#FF6971;stop-opacity:0.6546"/>
				<stop  offset="0.7206" style="stop-color:#FF9C6E;stop-opacity:0.4838"/>
				<stop  offset="1" style="stop-color:#FFB06D;stop-opacity:0.4"/>
			</linearGradient>
			<path style="fill:url(#SVGID_00000124152532504488405780000013705552798355708043_);" d="M319,107.7l-50.9-29.4
				c-1.4-0.8-2.5-2.9-2.5-4.7V15.7c0-1.8,1.1-2.7,2.5-1.9L319,43.2c1.4,0.8,2.5,2.9,2.5,4.7v57.9C321.5,107.7,320.4,108.5,319,107.7
				z"/>
			<g>
				<path class="st1" d="M286,35l-11.9-6.8c-0.8-0.5-1.5-1.7-1.5-2.8l0,0c0-1.1,0.7-1.6,1.5-1.1l11.9,6.8c0.8,0.5,1.5,1.7,1.5,2.8
					l0,0C287.4,35,286.8,35.5,286,35z"/>
				<path class="st1" d="M312.9,50.6l-11.9-6.8c-0.8-0.5-1.5-1.7-1.5-2.8l0,0c0-1.1,0.7-1.6,1.5-1.1l11.9,6.8
					c0.8,0.5,1.5,1.7,1.5,2.8l0,0C314.4,50.6,313.7,51.1,312.9,50.6z"/>
				<path class="st1" d="M295.7,40.7l-4.5-2.6c-0.8-0.5-1.5-1.7-1.5-2.8l0,0c0-1.1,0.7-1.6,1.5-1.1l4.5,2.6c0.8,0.5,1.5,1.7,1.5,2.8
					l0,0C297.2,40.6,296.5,41.1,295.7,40.7z"/>
				<path class="st1" d="M304.9,53.3l-30.8-17.8c-0.8-0.5-1.5-1.7-1.5-2.8l0,0c0-1.1,0.7-1.6,1.5-1.1l30.8,17.8
					c0.8,0.5,1.5,1.7,1.5,2.8l0,0C306.3,53.3,305.7,53.8,304.9,53.3z"/>
				<path class="st1" d="M286,49.7l-11.9-6.8c-0.8-0.5-1.5-1.7-1.5-2.8l0,0c0-1.1,0.7-1.6,1.5-1.1l11.9,6.8c0.8,0.5,1.5,1.7,1.5,2.8
					l0,0C287.4,49.7,286.8,50.2,286,49.7z"/>
				<path class="st1" d="M304.2,60.2l-11.9-6.8c-0.8-0.5-1.5-1.7-1.5-2.8l0,0c0-1.1,0.7-1.6,1.5-1.1l11.9,6.8
					c0.8,0.5,1.5,1.7,1.5,2.8l0,0C305.6,60.2,305,60.7,304.2,60.2z"/>
				<path class="st1" d="M280.1,53.6l-6-3.4c-0.8-0.5-1.5-1.7-1.5-2.8l0,0c0-1.1,0.7-1.6,1.5-1.1l6,3.4c0.8,0.5,1.5,1.7,1.5,2.8l0,0
					C281.5,53.6,280.9,54.1,280.1,53.6z"/>
				<path class="st1" d="M302,73.7l-27.9-16.1c-0.8-0.5-1.5-1.7-1.5-2.8l0,0c0-1.1,0.7-1.6,1.5-1.1L302,69.8
					c0.8,0.5,1.5,1.7,1.5,2.8l0,0C303.5,73.6,302.8,74.1,302,73.7z"/>
				<path class="st1" d="M288,72.9l-13.9-8c-0.8-0.5-1.5-1.7-1.5-2.8l0,0c0-1.1,0.7-1.6,1.5-1.1l13.9,8c0.8,0.5,1.5,1.7,1.5,2.8l0,0
					C289.5,72.9,288.8,73.4,288,72.9z"/>
				<path class="st1" d="M280.9,76l-6.8-3.9c-0.8-0.5-1.5-1.7-1.5-2.8l0,0c0-1.1,0.7-1.6,1.5-1.1l6.8,3.9c0.8,0.5,1.5,1.7,1.5,2.8
					l0,0C282.3,76,281.7,76.5,280.9,76z"/>
				<path class="st1" d="M293.4,83.2l-6.8-3.9c-0.8-0.5-1.5-1.7-1.5-2.8l0,0c0-1.1,0.7-1.6,1.5-1.1l6.8,3.9c0.8,0.5,1.5,1.7,1.5,2.8
					l0,0C294.8,83.2,294.2,83.7,293.4,83.2z"/>
				<path class="st1" d="M312.9,94.5l-14.3-8.2c-0.8-0.5-1.5-1.7-1.5-2.8l0,0c0-1.1,0.7-1.6,1.5-1.1l14.3,8.2
					c0.8,0.5,1.5,1.7,1.5,2.8l0,0C314.4,94.5,313.7,95,312.9,94.5z"/>
			</g>
		</g>
	</g>
</g>
</svg>
